<svg width="138" height="160" viewBox="0 0 138 160" fill="none" xmlns="http://www.w3.org/2000/svg">
<path d="M137.25 129.083V136.667H0.75V129.083L15.9167 113.917V68.4167C15.9167 44.9084 31.3108 24.2059 53.8333 17.5325V15.3334C53.8333 11.3109 55.4312 7.4532 58.2756 4.6089C61.1199 1.7646 64.9776 0.166687 69 0.166687C73.0225 0.166687 76.8801 1.7646 79.7245 4.6089C82.5688 7.4532 84.1667 11.3109 84.1667 15.3334V17.5325C106.689 24.2059 122.083 44.9084 122.083 68.4167V113.917L137.25 129.083ZM84.1667 144.25C84.1667 148.272 82.5688 152.13 79.7245 154.974C76.8801 157.819 73.0225 159.417 69 159.417C64.9776 159.417 61.1199 157.819 58.2756 154.974C55.4312 152.13 53.8333 148.272 53.8333 144.25" fill="#07E942"/>
</svg>
