<svg width="152" height="152" viewBox="0 0 152 152" fill="none" xmlns="http://www.w3.org/2000/svg">
<path d="M0.166748 151.833V15.3333C0.166748 11.1625 1.65308 7.59324 4.62575 4.62563C7.59842 1.65802 11.1676 0.171682 15.3334 0.166626H136.667C140.838 0.166626 144.409 1.65296 147.382 4.62563C150.355 7.59829 151.838 11.1675 151.833 15.3333V106.333C151.833 110.504 150.35 114.076 147.382 117.049C144.414 120.021 140.843 121.505 136.667 121.5H30.5001L0.166748 151.833ZM30.5001 91.1666H91.1667V76H30.5001V91.1666ZM30.5001 68.4166H121.5V53.25H30.5001V68.4166ZM30.5001 45.6666H121.5V30.5H30.5001V45.6666Z" fill="#07E942"/>
</svg>
