<svg width="138" height="152" viewBox="0 0 138 152" fill="none" xmlns="http://www.w3.org/2000/svg">
<path d="M27.2917 41.875C27.2917 30.8133 31.6859 20.2046 39.5078 12.3828C47.3296 4.56095 57.9383 0.166687 69 0.166687C80.0617 0.166687 90.6704 4.56095 98.4923 12.3828C106.314 20.2046 110.708 30.8133 110.708 41.875C110.708 52.9368 106.314 63.5454 98.4923 71.3673C90.6704 79.1891 80.0617 83.5834 69 83.5834C57.9383 83.5834 47.3296 79.1891 39.5078 71.3673C31.6859 63.5454 27.2917 52.9368 27.2917 41.875ZM0.75 129.083C0.75 119.027 4.74478 109.383 11.8555 102.272C18.9663 95.1615 28.6105 91.1667 38.6667 91.1667H99.3333C109.389 91.1667 119.034 95.1615 126.144 102.272C133.255 109.383 137.25 119.027 137.25 129.083V151.833H0.75V129.083Z" fill="#07E942"/>
</svg>
