<svg width="160" height="80" viewBox="0 0 160 80" fill="none" xmlns="http://www.w3.org/2000/svg">
<path d="M20.3999 26.8C19.9999 27 19.4999 27.1 18.7999 27.1C18.0999 27.1 17.6999 26.9 17.3999 26.6C17.0999 26.3 16.8999 25.7 16.8999 25C16.2999 25.7 15.5999 26.3 14.6999 26.6C13.8999 26.9 12.9999 27.1 11.9999 27.1C10.9999 27.1 10.7999 27.1 10.1999 26.9C9.5999 26.8 9.1999 26.5 8.7999 26.2C8.3999 25.9 8.0999 25.5 7.7999 25C7.5999 24.5 7.3999 23.9 7.3999 23.2C7.3999 22.5 7.4999 21.8 7.7999 21.3C8.0999 20.8 8.3999 20.4 8.8999 20.1C9.2999 19.8 9.7999 19.6 10.3999 19.4C10.9999 19.2 11.4999 19.1 12.0999 19C12.6999 18.9 13.2999 18.8 13.8999 18.7C14.4999 18.7 14.9999 18.6 15.3999 18.4C15.7999 18.3 16.1999 18.1 16.3999 17.9C16.5999 17.7 16.7999 17.4 16.7999 16.9C16.7999 16.4 16.7999 16 16.4999 15.7C16.2999 15.4 16.0999 15.2 15.7999 15C15.4999 14.8 15.1999 14.7 14.7999 14.7C14.3999 14.7 14.0999 14.7 13.6999 14.7C12.6999 14.7 11.8999 14.9 11.2999 15.2C10.6999 15.6 10.2999 16.3 10.2999 17.3H7.9999C7.9999 16.4 8.1999 15.7 8.4999 15.1C8.7999 14.5 9.1999 14 9.7999 13.7C10.2999 13.3 10.8999 13.1 11.5999 12.9C12.2999 12.7 12.9999 12.7 13.7999 12.7C14.5999 12.7 14.9999 12.7 15.5999 12.8C16.1999 12.8 16.7999 13.1 17.2999 13.3C17.7999 13.6 18.1999 14 18.4999 14.5C18.7999 15 18.9999 15.6 18.9999 16.4V23.5C18.9999 24 18.9999 24.4 18.9999 24.7C18.9999 24.9 19.2999 25.1 19.5999 25.1C19.8999 25.1 19.9999 25.1 20.2999 25L20.3999 26.8ZM16.7999 19.7C16.4999 19.9 16.0999 20.1 15.6999 20.2C15.1999 20.2 14.7999 20.4 14.2999 20.4C13.7999 20.4 13.2999 20.5 12.7999 20.6C12.2999 20.6 11.7999 20.8 11.3999 21C10.9999 21.2 10.6999 21.4 10.3999 21.8C10.0999 22.1 9.9999 22.6 9.9999 23.1C9.9999 23.6 9.9999 23.8 10.1999 24C10.2999 24.3 10.4999 24.5 10.7999 24.6C10.9999 24.8 11.2999 24.9 11.5999 24.9C11.8999 24.9 12.2999 25 12.5999 25C13.2999 25 13.9999 25 14.4999 24.7C14.9999 24.5 15.4999 24.2 15.7999 23.9C16.0999 23.6 16.3999 23.3 16.4999 22.9C16.6999 22.5 16.6999 22.2 16.6999 21.9L16.7999 19.7Z" fill="white"/>
<path d="M22.6001 7.89995V26.9H24.9001V25.1C25.1001 25.5 25.5001 25.8 25.8001 26.1C26.2001 26.4 26.5001 26.6 27.0001 26.7C27.4001 26.9 27.8001 27 28.2001 27C28.6001 27 29.0001 27.1 29.3001 27.1C30.3001 27.1 31.3001 26.9 32.1001 26.5C32.9001 26.1 33.5001 25.6 34.1001 25C34.6001 24.4 35.0001 23.6 35.3001 22.7C35.6001 21.8 35.7001 20.9 35.7001 19.9C35.7001 18.9 35.6001 18 35.3001 17.1C35.0001 16.2 34.6001 15.5 34.1001 14.8C33.6001 14.1 32.9001 13.6 32.1001 13.2C31.3001 12.8 30.4001 12.6 29.3001 12.6C28.2001 12.6 27.5001 12.8 26.7001 13.1C25.9001 13.4 25.3001 14 24.9001 14.8V7.69995H22.6001V7.89995ZM33.3001 19.9C33.3001 20.6 33.3001 21.2 33.1001 21.9C33.0001 22.5 32.7001 23.1 32.4001 23.6C32.1001 24.1 31.7001 24.4999 31.1001 24.7999C30.6001 25.0999 29.9001 25.2999 29.1001 25.2999C28.3001 25.2999 27.7001 25.2 27.1001 24.9C26.5001 24.6 26.1001 24.2 25.8001 23.7C25.5001 23.2 25.2001 22.7 25.0001 22C24.8001 21.4 24.8001 20.7 24.8001 20C24.8001 19.3 24.8001 18.7 25.0001 18.1C25.1001 17.5 25.4001 16.9 25.7001 16.4C26.0001 15.9 26.5001 15.5 27.0001 15.2C27.5001 14.9 28.2001 14.7 28.9001 14.7C29.6001 14.7 30.3001 14.8 30.8001 15.1C31.3001 15.4 31.8001 15.8 32.1001 16.2C32.4001 16.7 32.7001 17.2 32.9001 17.8C33.1001 18.4 33.2001 19 33.2001 19.7L33.3001 19.9Z" fill="white"/>
<path d="M39.6999 22.5H37.3999C37.3999 23.4 37.5999 24.1 37.8999 24.7C38.1999 25.3 38.5999 25.8 39.1999 26.1C39.6999 26.5 40.2999 26.7 40.9999 26.9C41.6999 27.1 42.3999 27.1 43.1999 27.1C43.9999 27.1 44.5999 27.1 45.2999 26.9C45.9999 26.8 46.5999 26.5 47.1999 26.2C47.7999 25.9 48.1999 25.4 48.5999 24.9C48.8999 24.3 49.0999 23.7 49.0999 22.8C49.0999 21.9 48.9999 21.6 48.6999 21.1C48.3999 20.7 48.0999 20.3 47.6999 20C47.2999 19.7 46.7999 19.5 46.2999 19.3C45.7999 19.1 45.1999 19 44.5999 18.8C44.0999 18.7 43.4999 18.6 42.9999 18.4C42.4999 18.3 41.9999 18.1 41.5999 18C41.1999 17.8 40.7999 17.6 40.4999 17.4C40.1999 17.1 40.0999 16.8 40.0999 16.4C40.0999 16 40.0999 15.8 40.3999 15.5C40.5999 15.3 40.7999 15.1 41.0999 15C41.3999 14.9 41.6999 14.8 41.9999 14.7C42.2999 14.7 42.6999 14.7 42.9999 14.7C43.2999 14.7 43.6999 14.7 44.0999 14.8C44.4999 14.8 44.7999 15 45.0999 15.2C45.3999 15.4 45.6999 15.6 45.7999 15.9C45.9999 16.2 46.0999 16.6 46.0999 17H48.3999C48.3999 16.2 48.1999 15.5 47.8999 14.9C47.5999 14.3 47.1999 13.9 46.6999 13.6C46.1999 13.3 45.5999 13 44.9999 12.9C44.2999 12.8 43.5999 12.7 42.7999 12.7C41.9999 12.7 41.5999 12.7 40.9999 12.9C40.3999 13 39.7999 13.3 39.2999 13.6C38.7999 13.9 38.3999 14.3 38.0999 14.8C37.7999 15.3 37.5999 15.9 37.5999 16.6C37.5999 17.3 37.7999 18.2 38.2999 18.7C38.6999 19.2 39.2999 19.6 39.9999 19.9C40.6999 20.2 41.3999 20.4 42.1999 20.5C42.9999 20.6 43.6999 20.8 44.3999 21C45.0999 21.2 45.5999 21.4 46.0999 21.7C46.5999 22 46.7999 22.4 46.7999 23C46.7999 23.6 46.6999 23.8 46.4999 24.1C46.2999 24.4 45.9999 24.6 45.6999 24.7C45.3999 24.8 44.9999 24.9 44.5999 25C44.1999 25 43.7999 25 43.4999 25C43.1999 25 42.5999 25 42.1999 24.9C41.7999 24.9 41.3999 24.7 40.9999 24.5C40.6999 24.3 40.3999 24 40.1999 23.7C39.9999 23.3 39.8999 22.9 39.8999 22.4L39.6999 22.5Z" fill="white"/>
<path d="M53.1999 20C53.1999 19.2 53.2999 18.4 53.4999 17.8C53.6999 17.2 53.9999 16.6 54.3999 16.2C54.7999 15.8 55.1999 15.4 55.7999 15.2C56.2999 15 56.8999 14.9 57.4999 14.9C58.0999 14.9 58.5999 15 59.1999 15.2C59.6999 15.4 60.1999 15.8 60.5999 16.2C60.9999 16.6 61.2999 17.2 61.4999 17.8C61.6999 18.4 61.7999 19.2 61.7999 20C61.7999 20.8 61.6999 21.6 61.4999 22.2C61.2999 22.8 60.9999 23.4 60.5999 23.8C60.1999 24.2 59.7999 24.6 59.1999 24.8C58.6999 25 58.0999 25.1 57.4999 25.1C56.8999 25.1 56.3999 25 55.7999 24.8C55.2999 24.6 54.7999 24.2 54.3999 23.8C53.9999 23.4 53.6999 22.8 53.4999 22.2C53.2999 21.6 53.1999 20.8 53.1999 20ZM50.8999 20C50.8999 21 50.9999 21.9 51.2999 22.8C51.5999 23.7 51.9999 24.4 52.5999 25.1C53.1999 25.7 53.8999 26.3 54.6999 26.6C55.4999 27 56.4999 27.1 57.5999 27.1C58.6999 27.1 59.6999 26.9 60.4999 26.6C61.2999 26.2 61.9999 25.7 62.5999 25.1C63.1999 24.5 63.5999 23.7 63.8999 22.8C64.1999 21.9 64.2999 21 64.2999 20C64.2999 19 64.1999 18 63.8999 17.2C63.5999 16.3 63.1999 15.6 62.5999 14.9C61.9999 14.3 61.2999 13.7 60.4999 13.4C59.6999 13 58.6999 12.8 57.5999 12.8C56.4999 12.8 55.5999 13 54.6999 13.4C53.8999 13.8 53.1999 14.3 52.5999 14.9C51.9999 15.5 51.5999 16.3 51.2999 17.2C50.9999 18.1 50.8999 19 50.8999 20Z" fill="white"/>
<path d="M67 7.90002V26.9H69.3V7.90002H67Z" fill="white"/>
<path d="M84.1001 26.8V13.1H81.8001V20.9C81.8001 21.5 81.8001 22.1 81.5001 22.6C81.3001 23.1 81.1001 23.6 80.7001 24C80.4001 24.4 79.9001 24.7 79.4001 24.9C78.9001 25.1 78.3001 25.2 77.6001 25.2C76.9001 25.2 76.0001 25 75.6001 24.5C75.1001 24 74.9001 23.3 74.9001 22.5V13.2H72.6001V22.2C72.6001 22.9 72.6001 23.6 72.8001 24.2C72.9001 24.8 73.2001 25.3 73.6001 25.8C74.0001 26.2 74.5001 26.6 75.1001 26.8C75.7001 27 76.5001 27.2 77.4001 27.2C78.3001 27.2 79.3001 27 80.0001 26.6C80.7001 26.2 81.4001 25.6 81.8001 24.7V26.9H83.9001L84.1001 26.8Z" fill="white"/>
<path d="M90.7001 13.1V9H88.4001V13.1H86.1001V15.1H88.4001V23.8C88.4001 24.4 88.4001 25 88.6001 25.3C88.7001 25.7 88.9001 26 89.2001 26.2C89.5001 26.4 89.8001 26.6 90.2001 26.6C90.6001 26.6 91.1001 26.7 91.7001 26.7H93.4001V24.7H92.4001C92.0001 24.7 91.8001 24.7 91.5001 24.7C91.3001 24.7 91.1001 24.7 91.0001 24.5C90.9001 24.5 90.8001 24.3 90.7001 24.1C90.7001 23.9 90.7001 23.7 90.7001 23.5V15H93.4001V13H90.7001V13.1Z" fill="white"/>
<path d="M105.5 18.7H97.5999C97.5999 18.2 97.6999 17.7 97.8999 17.2C98.0999 16.7 98.3999 16.3 98.6999 16C98.9999 15.6 99.3999 15.4 99.8999 15.2C100.4 15 100.9 14.9 101.5 14.9C102.1 14.9 102.6 14.9 103.1 15.2C103.6 15.4 104 15.7 104.3 16C104.6 16.3 104.9 16.8 105.1 17.2C105.3 17.7 105.4 18.2 105.5 18.7ZM107.7 22.5H105.5C105.3 23.4 104.9 24.1 104.3 24.5C103.7 24.9 102.9 25.2 101.9 25.2C100.9 25.2 100.5 25.1 99.9999 24.8C99.4999 24.6 98.9999 24.2 98.5999 23.8C98.1999 23.4 97.9999 22.9 97.7999 22.4C97.5999 21.9 97.5999 21.3 97.5999 20.7H107.9C107.9 19.9 107.9 19 107.7 18.1C107.5 17.2 107.2 16.3 106.7 15.5C106.2 14.7 105.6 14.1 104.8 13.6C104 13.1 103 12.8 101.8 12.8C100.6 12.8 99.9999 13 99.1999 13.3C98.3999 13.7 97.6999 14.2 97.1999 14.8C96.5999 15.4 96.1999 16.2 95.8999 17.1C95.5999 18 95.3999 18.9 95.3999 20C95.3999 21 95.5999 22 95.8999 22.9C96.1999 23.8 96.5999 24.6 97.0999 25.2C97.6999 25.8 98.2999 26.3 99.0999 26.7C99.8999 27.1 100.9 27.2 102 27.2C103.6 27.2 104.9 26.8 105.9 26C106.9 25.2 107.6 24.1 107.9 22.5H107.7Z" fill="white"/>
<path d="M76.5998 31.2V28.4H74.2998V31.2H76.5998ZM74.2998 33.6V47.4H76.5998V33.6H74.2998Z" fill="white"/>
<path d="M86.3002 47.4L91.3002 33.6H88.9002L85.1002 45.1L81.2002 33.6H78.7002L83.8002 47.4H86.2002H86.3002Z" fill="white"/>
<path d="M103 39.2001H95.0998C95.0998 38.7001 95.1998 38.2001 95.3998 37.7001C95.5998 37.2001 95.8998 36.8 96.1998 36.5C96.4998 36.1 96.8998 35.9001 97.3998 35.7001C97.8998 35.5001 98.3998 35.4001 98.9998 35.4001C99.5998 35.4001 100.1 35.4001 100.6 35.7001C101.1 35.9001 101.5 36.2 101.8 36.5C102.1 36.8 102.4 37.3001 102.6 37.7001C102.8 38.2001 102.9 38.7001 103 39.2001ZM105.1 43H102.9C102.7 43.9 102.3 44.6 101.7 45C101.1 45.4 100.3 45.7001 99.2998 45.7001C98.2998 45.7001 97.8998 45.6 97.3998 45.3C96.7998 45.1 96.3998 44.7 95.9998 44.3C95.5998 43.9 95.3998 43.4001 95.1998 42.9001C94.9998 42.4001 94.9998 41.8001 94.9998 41.2001H105.3C105.3 40.4001 105.3 39.5 105.1 38.6C104.9 37.7 104.6 36.8 104.1 36C103.6 35.2 103 34.6 102.2 34.1C101.4 33.6 100.4 33.3 99.1998 33.3C97.9998 33.3 97.3998 33.5 96.5998 33.8C95.7998 34.2 95.0998 34.7 94.5998 35.3C93.9998 35.9 93.5998 36.7 93.2998 37.6C92.9998 38.5 92.7998 39.4 92.7998 40.5C92.7998 41.5 92.9998 42.5001 93.2998 43.4001C93.5998 44.3001 93.9998 45.1001 94.4998 45.7001C95.0998 46.3001 95.6998 46.8001 96.4998 47.2001C97.2998 47.6001 98.2998 47.7001 99.3998 47.7001C101 47.7001 102.2 47.3 103.3 46.5C104.3 45.7 105 44.6 105.3 43H105.1Z" fill="white"/>
<path d="M79.6 65.4V52.8H77.5V54.8C77.1 54 76.5 53.5 75.8 53.1C75.1 52.7 74.3 52.5 73.4 52.5C72.5 52.5 71.2 52.7 70.4 53.2C69.6 53.7 68.9 54.2 68.4 54.9C67.9 55.6 67.5 56.4 67.3 57.2C67.1 58.1 67 58.9 67 59.7C67 60.5 67.1 61.5 67.4 62.4C67.7 63.2 68 64 68.6 64.6C69.1 65.2 69.8 65.7 70.5 66.1C71.3 66.5 72.2 66.7 73.2 66.7C74.2 66.7 74.9 66.5 75.7 66.1C76.5 65.7 77.1 65.1 77.5 64.2V65.1C77.5 65.9 77.5 66.6 77.3 67.2C77.2 67.8 76.9 68.4 76.6 68.8C76.3 69.3 75.8 69.6 75.3 69.9C74.8 70.2 74.2 70.3 73.4 70.3C72.6 70.3 72.6 70.3 72.2 70.2C71.8 70.2 71.4 70 71.1 69.8C70.8 69.6 70.5 69.4 70.2 69.1C70 68.8 69.8 68.5 69.8 68.1H67.5C67.5 68.8 67.7 69.5 68.1 70C68.5 70.5 68.9 70.9 69.4 71.2C69.9 71.5 70.5 71.8 71.2 71.9C71.9 72 72.5 72.1 73.2 72.1C75.4 72.1 77 71.5 78 70.4C79 69.3 79.6 67.6 79.6 65.4ZM73.2 64.8C72.5 64.8 71.8 64.6 71.3 64.3C70.8 64 70.4 63.6 70.1 63.1C69.8 62.6 69.6 62 69.5 61.4C69.4 60.8 69.3 60.2 69.3 59.5C69.3 58.8 69.3 58.2 69.5 57.6C69.6 57 69.9 56.5 70.2 56C70.5 55.5 70.9 55.2 71.5 54.9C72 54.6 72.6 54.5 73.4 54.5C74.2 54.5 74.7 54.6 75.2 54.9C75.7 55.2 76.1 55.6 76.4 56C76.7 56.5 76.9 57 77.1 57.6C77.2 58.2 77.3 58.8 77.3 59.4C77.3 60 77.3 60.7 77.1 61.3C77 61.9 76.7 62.5 76.4 63C76.1 63.5 75.7 63.9 75.1 64.2C74.6 64.5 74 64.7 73.2 64.7V64.8Z" fill="white"/>
<path d="M95.2002 66.6C94.8002 66.8 94.3002 66.9 93.6002 66.9C92.9002 66.9 92.5002 66.7 92.2002 66.4C91.9002 66.1 91.7002 65.5 91.7002 64.8C91.1002 65.5 90.4002 66.1 89.5002 66.4C88.6002 66.7 87.8002 66.9 86.8002 66.9C85.8002 66.9 85.6002 66.9 85.0002 66.7C84.4002 66.6 84.0002 66.3 83.6002 66C83.2002 65.7 82.9002 65.3 82.6002 64.8C82.4002 64.3 82.2002 63.7 82.2002 63C82.2002 62.3 82.3002 61.6 82.6002 61.1C82.9002 60.6 83.2002 60.2 83.7002 59.9C84.1002 59.6 84.6002 59.4 85.2002 59.2C85.8002 59 86.3002 58.9 86.9002 58.8C87.5002 58.7 88.1002 58.6 88.7002 58.5C89.3002 58.5 89.8002 58.4 90.2002 58.2C90.6002 58.1 91.0002 57.9 91.2002 57.7C91.4002 57.5 91.6002 57.2 91.6002 56.7C91.6002 56.2 91.6002 55.8 91.3002 55.5C91.1002 55.2 90.9002 55 90.6002 54.8C90.3002 54.6 90.0002 54.5 89.6002 54.5C89.2002 54.5 88.9002 54.5 88.5002 54.5C87.5002 54.5 86.7002 54.7 86.1002 55C85.5002 55.4 85.1002 56.1 85.1002 57.1H82.8002C82.8002 56.2 83.0002 55.5 83.3002 54.9C83.6002 54.3 84.0002 53.8 84.6002 53.5C85.1002 53.1 85.7002 52.9 86.4002 52.7C87.1002 52.5 87.8002 52.5 88.6002 52.5C89.4002 52.5 89.8002 52.5 90.4002 52.6C91.0002 52.6 91.6002 52.9 92.1002 53.1C92.6002 53.4 93.0002 53.8 93.3002 54.3C93.6002 54.8 93.8002 55.4 93.8002 56.2V63.3C93.8002 63.8 93.8002 64.2 93.8002 64.5C93.8002 64.7 94.1002 64.9 94.4002 64.9C94.7002 64.9 94.8002 64.9 95.1002 64.8V66.6H95.2002ZM91.5002 59.5C91.2002 59.7 90.8002 59.9 90.4002 60C90.0002 60.1 89.5002 60.2 89.0002 60.2C88.5002 60.2 88.0002 60.3 87.5002 60.4C87.0002 60.4 86.5002 60.6 86.1002 60.8C85.7002 61 85.4002 61.2 85.1002 61.6C84.8002 61.9 84.7002 62.4 84.7002 62.9C84.7002 63.4 84.7002 63.6 84.9002 63.8C85.0002 64.1 85.2002 64.3 85.5002 64.4C85.7002 64.6 86.0002 64.7 86.3002 64.7C86.6002 64.7 87.0002 64.8 87.3002 64.8C88.0002 64.8 88.7002 64.8 89.2002 64.5C89.7002 64.3 90.2002 64 90.5002 63.7C90.8002 63.4 91.1002 63.1 91.2002 62.7C91.4002 62.3 91.4002 62 91.4002 61.7V59.4L91.5002 59.5Z" fill="white"/>
<path d="M97.2002 52.9001V66.7H99.5002V58.1C99.5002 57.8 99.5002 57.5 99.7002 57.1C99.8002 56.7 100 56.3001 100.3 55.9001C100.6 55.5001 101 55.2001 101.4 54.9001C101.9 54.6001 102.4 54.5 103.1 54.5C103.8 54.5 104 54.5001 104.4 54.7001C104.7 54.8001 105 55.1 105.2 55.3C105.4 55.6 105.5 55.9 105.6 56.3C105.6 56.7 105.7 57.1 105.7 57.5V66.5H108V57.9001C108 56.8001 108.3 56 109 55.3C109.6 54.7 110.5 54.3 111.6 54.3C112.7 54.3 112.6 54.3 112.9 54.5C113.2 54.7 113.5 54.9 113.7 55.1C113.9 55.4 114 55.7 114.1 56.1C114.2 56.5 114.2 56.9 114.2 57.3V66.3001H116.5V56.2001C116.5 55.5001 116.4 54.9001 116.2 54.4001C116 53.9001 115.7 53.5001 115.3 53.2001C114.9 52.9001 114.4 52.6 113.9 52.5C113.3 52.4 112.7 52.3 112 52.3C111.3 52.3 110.3 52.5001 109.5 52.9001C108.7 53.3001 108.1 53.9 107.7 54.6C107.4 53.7 106.9 53.1 106.2 52.8C105.5 52.4 104.7 52.3 103.9 52.3C102 52.3 100.5 53.1 99.5002 54.6V52.6H97.4002L97.2002 52.9001Z" fill="white"/>
<path d="M122.3 50.4V47.6H120V50.4H122.3ZM120.1 52.9V66.7H122.4V52.9H120.1Z" fill="white"/>
<path d="M125.8 52.9V66.7H128.1V58.9C128.1 58.3 128.1 57.7 128.4 57.2C128.6 56.7 128.8 56.2 129.2 55.8C129.5 55.4 130 55.1 130.5 54.9C131 54.7 131.6 54.6 132.3 54.6C133 54.6 133.9 54.8 134.3 55.3C134.8 55.8 135 56.5 135 57.3V66.6H137.3V57.6C137.3 56.9 137.3 56.2 137.1 55.6C137 55 136.7 54.5 136.3 54C135.9 53.6 135.4 53.2 134.8 53C134.2 52.8 133.4 52.6 132.5 52.6C130.5 52.6 129 53.4 128 55.1V52.9H125.9H125.8Z" fill="white"/>
<path d="M152.5 65.4V52.8H150.4V54.8C150 54 149.4 53.5 148.7 53.1C148 52.7 147.2 52.5 146.3 52.5C145.4 52.5 144.1 52.7 143.3 53.2C142.5 53.7 141.8 54.2 141.3 54.9C140.8 55.6 140.4 56.4 140.2 57.2C140 58.1 139.9 58.9 139.9 59.7C139.9 60.5 140 61.5 140.3 62.4C140.6 63.2 140.9 64 141.5 64.6C142 65.2 142.7 65.7 143.4 66.1C144.2 66.5 145.1 66.7 146.1 66.7C147.1 66.7 147.8 66.5 148.6 66.1C149.4 65.7 150 65.1 150.4 64.2V65.1C150.4 65.9 150.4 66.6 150.2 67.2C150.1 67.8 149.8 68.4 149.5 68.8C149.2 69.3 148.7 69.6 148.2 69.9C147.7 70.2 147.1 70.3 146.3 70.3C145.5 70.3 145.5 70.3 145.1 70.2C144.7 70.2 144.3 70 144 69.8C143.7 69.6 143.4 69.4 143.1 69.1C142.9 68.8 142.7 68.5 142.7 68.1H140.4C140.4 68.8 140.6 69.5 141 70C141.4 70.5 141.8 70.9 142.3 71.2C142.8 71.5 143.4 71.8 144.1 71.9C144.8 72 145.4 72.1 146.1 72.1C148.3 72.1 149.9 71.5 150.9 70.4C151.9 69.3 152.4 67.6 152.5 65.4ZM146.2 64.8C145.5 64.8 144.8 64.6 144.3 64.3C143.8 64 143.4 63.6 143.1 63.1C142.8 62.6 142.6 62 142.5 61.4C142.4 60.8 142.3 60.2 142.3 59.5C142.3 58.8 142.3 58.2 142.5 57.6C142.6 57 142.9 56.5 143.2 56C143.5 55.5 143.9 55.2 144.5 54.9C145 54.6 145.6 54.5 146.4 54.5C147.2 54.5 147.7 54.6 148.2 54.9C148.7 55.2 149.1 55.6 149.4 56C149.7 56.5 149.9 57 150.1 57.6C150.2 58.2 150.3 58.8 150.3 59.4C150.3 60 150.3 60.7 150.1 61.3C150 61.9 149.7 62.5 149.4 63C149.1 63.5 148.7 63.9 148.1 64.2C147.6 64.5 146.9 64.7 146.2 64.7V64.8Z" fill="white"/>
<path fill-rule="evenodd" clip-rule="evenodd" d="M69.3 7.80005H67V47.4001H69.3V7.80005Z" fill="white"/>
<path fill-rule="evenodd" clip-rule="evenodd" d="M64.2002 7.80005V9.90005H69.3002V7.80005H64.2002Z" fill="white"/>
<path fill-rule="evenodd" clip-rule="evenodd" d="M67 45.3V47.4001H72.1V45.3H67Z" fill="white"/>
</svg>
