<svg width="160" height="80" viewBox="0 0 160 80" fill="none" xmlns="http://www.w3.org/2000/svg">
<path d="M39.6001 53.7H47.4001V63C46.3001 63.8 45.1001 64.4 43.8001 64.8C42.5001 65.2 41.2001 65.4 39.8001 65.4C38.4001 65.4 36.3001 65.1 34.8001 64.5C33.3001 63.9 32.0001 63.1 31.0001 62.2C29.9001 61.2 29.1001 60 28.5001 58.6C27.9001 57.2 27.6001 55.7 27.6001 54.1C27.6001 52.5 27.9001 51 28.4001 49.6C28.9001 48.2 29.7001 47 30.7001 46C31.7001 45 32.9001 44.2 34.4001 43.7C35.8001 43.1 37.4001 42.9 39.2001 42.9C41.0001 42.9 41.0001 42.9 41.8001 43.1C42.6001 43.3 43.4001 43.5 44.0001 43.7C44.7001 44 45.3001 44.3 45.9001 44.6C46.5001 45 47.0001 45.4 47.4001 45.8L45.9001 48C45.7001 48.4 45.4001 48.6 45.0001 48.7C44.6001 48.7 44.2001 48.7 43.8001 48.4C43.4001 48.2 43.0001 47.9 42.7001 47.8C42.3001 47.6 42.0001 47.5 41.6001 47.4C41.2001 47.3 40.8001 47.2 40.4001 47.2C40.0001 47.2 39.5001 47.2 39.0001 47.2C38.0001 47.2 37.2001 47.4 36.4001 47.7C35.6001 48 35.0001 48.5 34.4001 49.1C33.9001 49.7 33.4001 50.5 33.2001 51.3C32.9001 52.2 32.8001 53.1 32.8001 54.2C32.8001 55.3 33.0001 56.4 33.3001 57.3C33.6001 58.2 34.1001 59 34.7001 59.6C35.3001 60.2 36.0001 60.7 36.8001 61C37.6001 61.3 38.5001 61.5 39.5001 61.5C40.5001 61.5 40.7001 61.5 41.2001 61.3C41.7001 61.2 42.2001 61 42.7001 60.8V57.5H40.5001C40.2001 57.5 39.9001 57.5 39.7001 57.2C39.5001 57 39.4001 56.8 39.4001 56.5V53.7H39.6001Z" fill="white"/>
<path d="M70.2999 65.1H66.2999C65.8999 65.1 65.4999 65.1 65.1999 64.8C64.8999 64.6 64.6999 64.3 64.5999 64L63.2999 60.2H54.8999L53.5999 64C53.4999 64.3 53.2999 64.5 52.9999 64.8C52.6999 65 52.3999 65.1 51.8999 65.1H47.8999L56.3999 43.1H61.5999L70.0999 65.1H70.2999ZM62.1999 56.7L60.1999 50.7C59.9999 50.3 59.8999 49.9 59.6999 49.3C59.4999 48.8 59.3999 48.2 59.1999 47.6C58.9999 48.2 58.8999 48.8 58.6999 49.3C58.4999 49.8 58.3999 50.3 58.1999 50.7L56.1999 56.7H62.1999Z" fill="white"/>
<path d="M96.8998 43.1V65.1H92.3998V52.5C92.3998 52.2 92.3998 51.9 92.3998 51.5C92.3998 51.2 92.3998 50.8 92.3998 50.5L86.4998 61.8C86.2998 62.2 86.0998 62.4 85.7998 62.6C85.4998 62.8 85.0998 62.9 84.6998 62.9H83.9998C83.5998 62.9 83.2998 62.9 82.8998 62.6C82.5998 62.4 82.2998 62.2 82.1998 61.8L76.2998 50.5C76.2998 50.9 76.2998 51.2 76.2998 51.6C76.2998 51.9 76.2998 52.3 76.2998 52.6V65.2H71.7998V43.3H75.6998C75.8998 43.3 76.0998 43.3 76.2998 43.3C76.4998 43.3 76.5998 43.3 76.6998 43.3C76.7998 43.3 76.8998 43.4 77.0998 43.5C77.1998 43.6 77.2998 43.8 77.3998 43.9L83.0998 55C83.2998 55.4 83.4998 55.8 83.6998 56.2C83.8998 56.6 84.0998 57 84.1998 57.5C84.3998 57.1 84.5998 56.6 84.6998 56.2C84.8998 55.8 85.0998 55.4 85.2998 55L90.9998 43.9C91.0998 43.7 91.1998 43.6 91.2998 43.5C91.3998 43.4 91.4998 43.3 91.6998 43.3C91.7998 43.3 91.9998 43.3 92.0998 43.3C92.2998 43.3 92.4998 43.3 92.6998 43.3H96.5998L96.8998 43.1Z" fill="white"/>
<path d="M106.3 47.1V52.2H113.2V56H106.3V61.2H115.4V65.1H101.2V43.1H115.4V47L106.3 47.1Z" fill="white"/>
<path d="M130.7 47.5999C130.5 47.7999 130.4 47.9999 130.2 48.0999C130 48.1999 129.8 48.2999 129.6 48.2999C129.4 48.2999 129.1 48.2999 128.9 48.0999C128.6 47.9999 128.3 47.7999 128 47.5999C127.7 47.3999 127.3 47.2999 126.8 47.0999C126.4 46.9999 125.9 46.9 125.3 46.9C124.3 46.9 123.6 47.1 123.2 47.5C122.7 47.9 122.5 48.4999 122.5 49.0999C122.5 49.6999 122.6 49.9 122.9 50.2C123.2 50.5 123.6 50.7 124 51C124.5 51.2 125 51.3999 125.6 51.5999C126.2 51.7999 126.8 52 127.4 52.2C128 52.4 128.6 52.7 129.2 53C129.8 53.3 130.3 53.6999 130.8 54.0999C131.3 54.5999 131.6 55.1 131.9 55.7C132.2 56.4 132.3 57.1 132.3 58C132.3 58.9 132.1 59.9999 131.8 60.7999C131.4 61.6999 130.9 62.4999 130.3 63.0999C129.6 63.7999 128.8 64.2999 127.8 64.5999C126.8 64.9999 125.7 65.1999 124.4 65.1999C123.1 65.1999 123 65.2 122.3 65C121.6 64.9 120.9 64.7 120.2 64.4C119.5 64.1 118.9 63.8 118.3 63.5C117.7 63.1 117.2 62.7999 116.8 62.2999L118.3 59.9C118.4 59.7 118.6 59.6 118.8 59.5C119 59.4 119.2 59.2999 119.4 59.2999C119.6 59.2999 120 59.2999 120.3 59.5999C120.6 59.7999 121 60 121.3 60.2C121.7 60.4 122.1 60.5999 122.6 60.7999C123.1 60.9999 123.7 61.0999 124.4 61.0999C125.1 61.0999 126 60.9 126.6 60.5C127.1 60.1 127.4 59.3999 127.4 58.5999C127.4 57.7999 127.3 57.6999 127 57.2999C126.7 56.8999 126.3 56.7 125.9 56.5C125.4 56.3 124.9 56.1 124.3 55.9C123.7 55.7 123.1 55.6 122.5 55.4C121.9 55.2 121.3 55 120.7 54.7C120.1 54.4 119.6 53.9999 119.1 53.5999C118.6 53.0999 118.3 52.5 118 51.9C117.7 51.2 117.6 50.2999 117.6 49.2999C117.6 48.2999 117.8 47.7 118.1 46.9C118.4 46.1 118.9 45.3999 119.6 44.7999C120.2 44.1999 121 43.6999 122 43.2999C122.9 42.8999 124 42.7 125.2 42.7C126.4 42.7 126.5 42.7 127.2 42.9C127.8 42.9 128.4 43.2 129 43.4C129.6 43.6 130.1 43.8999 130.6 44.0999C131.1 44.3999 131.5 44.6999 131.9 45.0999L130.6 47.5L130.7 47.5999Z" fill="white"/>
<path d="M12.9999 15.9C14.4999 15.9 15.7999 16 16.8999 16.3C17.9999 16.6 18.7999 17 19.4999 17.5C20.1999 18 20.6999 18.6 20.9999 19.4C21.2999 20.1 21.4999 20.9 21.4999 21.9C21.4999 22.9 21.4999 22.9 21.2999 23.3C21.1999 23.8 20.8999 24.2 20.5999 24.6C20.2999 25 19.8999 25.4 19.3999 25.7C18.8999 26 18.3999 26.3 17.6999 26.6C19.1999 27 20.1999 27.5 20.8999 28.3C21.5999 29.1 21.8999 30.1 21.8999 31.3C21.8999 32.5 21.6999 33.1 21.3999 33.9C20.9999 34.7 20.4999 35.4 19.7999 36C19.0999 36.6 18.1999 37.1 17.1999 37.4C16.1999 37.7 14.9999 37.9 13.6999 37.9H4.8999V15.9H12.9999ZM9.9999 19.7V25.1H12.6999C13.2999 25.1 13.7999 25.1 14.1999 25C14.6999 25 14.9999 24.8 15.3999 24.6C15.6999 24.4 15.9999 24.1 16.0999 23.8C16.2999 23.4 16.2999 23 16.2999 22.5C16.2999 22 16.2999 21.5 16.0999 21.2C15.9999 20.9 15.7999 20.6 15.4999 20.4C15.1999 20.2 14.8999 20 14.4999 19.9C14.0999 19.9 13.5999 19.8 12.9999 19.8H9.9999V19.7ZM13.5999 34C14.2999 34 14.7999 34 15.2999 33.7C15.6999 33.5 16.0999 33.3 16.2999 33C16.4999 32.7 16.6999 32.4 16.7999 32.1C16.7999 31.8 16.8999 31.4 16.8999 31.1C16.8999 30.8 16.8999 30.3 16.6999 30C16.5999 29.7 16.3999 29.4 16.1999 29.2C15.8999 29 15.5999 28.8 15.1999 28.7C14.7999 28.6 14.1999 28.5 13.5999 28.5H9.9999V34H13.5999Z" fill="white"/>
<path d="M99.3002 15.9V37.9H94.8002V25.3C94.8002 25 94.8002 24.7 94.8002 24.3C94.8002 24 94.8002 23.6 94.8002 23.3L88.9002 34.6C88.7002 35 88.5002 35.2 88.2002 35.4C87.9002 35.6 87.5002 35.7 87.1002 35.7H86.4002C86.0002 35.7 85.7002 35.7 85.3002 35.4C85.0002 35.2 84.7002 35 84.6002 34.6L78.7002 23.3C78.7002 23.7 78.7002 24 78.7002 24.4C78.7002 24.7 78.7002 25.1 78.7002 25.4V38H74.2002V15.9H78.1002C78.3002 15.9 78.5002 15.9 78.7002 15.9C78.9002 15.9 79.0002 15.9 79.1002 15.9C79.2002 15.9 79.3002 16 79.5002 16.1C79.6002 16.2 79.7002 16.4 79.8002 16.5L85.5002 27.6C85.7002 28 85.9002 28.4 86.1002 28.8C86.3002 29.2 86.5002 29.6 86.6002 30.1C86.8002 29.7 87.0002 29.2 87.1002 28.8C87.3002 28.4 87.5002 28 87.7002 27.6L93.4002 16.5C93.5002 16.3 93.6002 16.2 93.7002 16.1C93.8002 16 93.9002 15.9 94.1002 15.9C94.2002 15.9 94.4002 15.9 94.5002 15.9C94.7002 15.9 94.9002 15.9 95.1002 15.9H99.0002H99.3002Z" fill="white"/>
<path d="M108.7 37.9H103.6V15.9H108.7V37.9Z" fill="white"/>
<path d="M132.2 15.9V37.9H129.5C129.1 37.9 128.8 37.9 128.5 37.7C128.2 37.6 128 37.4 127.7 37L117.3 23.9C117.3 24.3 117.3 24.7 117.3 25C117.3 25.4 117.3 25.7 117.3 26V37.8H112.8V15.9H115.5C115.7 15.9 115.9 15.9 116.1 15.9C116.3 15.9 116.4 15.9 116.5 16C116.6 16 116.7 16.1 116.8 16.2C116.9 16.2 117 16.4 117.2 16.6L127.7 29.8C127.7 29.4 127.7 29 127.6 28.6C127.6 28.2 127.6 27.8 127.6 27.5V15.9H132.2Z" fill="white"/>
<path d="M147.1 26.5H154.9V35.7999C153.8 36.5999 152.6 37.1999 151.3 37.5999C150 37.9999 148.7 38.2 147.3 38.2C145.9 38.2 143.8 37.8999 142.3 37.2999C140.8 36.6999 139.5 35.9 138.5 35C137.4 34 136.6 32.8 136 31.4C135.4 30 135.1 28.5 135.1 26.9C135.1 25.3 135.4 23.8 135.9 22.4C136.4 21 137.2 19.8 138.2 18.8C139.2 17.8 140.4 17 141.9 16.5C143.3 15.9 144.9 15.7 146.7 15.7C148.5 15.7 148.5 15.7 149.3 15.9C150.1 16.1 150.9 16.3 151.5 16.5C152.2 16.8 152.8 17.1 153.4 17.4C154 17.8 154.5 18.2 154.9 18.6L153.4 20.9C153.2 21.3 152.9 21.5 152.5 21.6C152.1 21.6 151.7 21.6 151.3 21.3C150.9 21.1 150.5 20.8 150.2 20.7C149.8 20.5 149.5 20.4 149.1 20.3C148.7 20.2 148.3 20.1 147.9 20.1C147.5 20.1 147 20.1 146.5 20.1C145.5 20.1 144.7 20.3 143.9 20.6C143.1 20.9 142.5 21.4 141.9 22C141.4 22.6 140.9 23.4 140.7 24.2C140.4 25.1 140.3 26 140.3 27.1C140.3 28.2 140.5 29.3 140.8 30.2C141.1 31.1 141.6 31.9 142.2 32.5C142.8 33.1 143.5 33.6 144.3 33.9C145.1 34.2 146 34.4 147 34.4C148 34.4 148.2 34.4 148.7 34.2C149.2 34.1 149.7 33.9 150.2 33.7V30.4H148C147.7 30.4 147.4 30.4 147.2 30.1C147 29.9 146.9 29.7 146.9 29.4V26.6L147.1 26.5Z" fill="white"/>
<path d="M67 28C66.4 31.4 63.4 33.8 60 33.8H59.8C59.3 33.8 58.8 33.8 57.4 33.2C56.1 32.6 55.8 32.3 54.8 31.6C54.2 31.2 53.4 30.3 52.7 29.6C51.9 30.4 50.2 32.4 50 32.5C50.7 33.2 52.3 34.7 53 35.2H52.9C54.4 36.3 56.2 37.2 58.1 37.5C58.7 37.5 59.2 37.6 59.8 37.6C60.4 37.6 60.8 37.6 61.3 37.6C65.7 37.1 69.4 34 70.6 29.7L67 28Z" fill="white"/>
<path d="M54.6999 22C55.9999 20.5 57.8999 19.6 59.9999 19.6C62.0999 19.6 63.1999 20.2 64.4999 21.2L62.7999 22.4L70.5999 26L69.7999 17.5L67.7999 18.9C65.7999 16.9 62.9999 15.7 59.9999 15.7C56.9999 15.7 53.4999 17.2 51.4999 19.7C51.4999 19.8 45.2999 27.2 42.7999 29.7C42.6999 29.8 42.4999 30 42.3999 30.1C42.1999 30.3 41.9999 30.4 41.8999 30.6C41.8999 30.6 41.8999 30.6 41.7999 30.6C41.5999 30.7 41.4999 30.9 41.2999 31C41.2999 31 41.2999 31 41.1999 31C41.0999 31 40.9999 31.2 40.8999 31.2C40.8999 31.2 40.8999 31.2 40.7999 31.2C40.7999 31.2 40.7999 31.2 40.6999 31.2C40.5999 31.2 40.3999 31.4 40.2999 31.5C40.2999 31.5 40.2999 31.5 40.1999 31.5C40.0999 31.5 39.8999 31.6999 39.7999 31.7999C39.7999 31.7999 39.7999 31.7999 39.6999 31.7999C39.5999 31.7999 39.4999 31.9 39.3999 32C39.3999 32 39.3999 32 39.2999 32C39.1999 32 39.0999 32.1 38.9999 32.2C38.2999 32.6 37.6999 32.9 37.0999 33C36.5999 33.2 36.1999 33.2 35.3999 33.2C31.4999 33 28.3999 29.6 28.6999 25.6C28.9999 22.1 31.7999 19.3 35.2999 19.1C37.4999 19 39.4999 19.9 40.9999 21.3C41.1999 21.5 43.1999 23.7 43.6999 24.2C44.4999 23.4 46.2999 21.3 46.2999 21.2C45.8999 20.7 44.3999 19.2 44.2999 19.1C42.1999 16.7 39.0999 15.2 35.5999 15.2C29.8999 15.2 25.0999 19.8 24.6999 25.6C24.3999 31.7 28.9999 36.8 34.9999 37.2C35.1999 37.2 36.1999 37.2 36.6999 37.2C37.1999 37.2 37.6999 37 38.0999 36.9C38.6999 36.8 39.3999 36.4 39.3999 36.4C39.3999 36.4 39.3999 36.4 39.4999 36.4C39.5999 36.4 39.7999 36.3 39.8999 36.2C39.8999 36.2 39.9999 36.2 40.0999 36.2C40.1999 36.2 40.3999 36.1 40.4999 36C40.4999 36 40.5999 36 40.6999 36C41.0999 35.8 41.4999 35.5999 41.8999 35.2999C41.8999 35.2999 41.9999 35.3 42.0999 35.2C42.2999 35.2 42.3999 35 42.5999 34.9C42.5999 34.9 42.6999 34.8999 42.7999 34.7999C42.9999 34.6999 43.0999 34.6 43.2999 34.5C43.2999 34.5 43.3999 34.4999 43.4999 34.2999C43.6999 34.1999 43.7999 34 43.9999 33.9C43.9999 33.9 43.9999 33.9 44.0999 33.9C44.2999 33.7 44.5999 33.4999 44.7999 33.2999C44.7999 33.2999 44.8999 33.2999 44.9999 33.0999C45.1999 32.8999 45.3999 32.7999 45.5999 32.5999C45.5999 32.5999 45.7999 32.4 45.8999 32.4C45.8999 32.4 45.8999 32.4 45.9999 32.4C46.0999 32.3 46.2999 32.1 46.3999 32C46.3999 32 48.6999 29.8 50.1999 27.9C51.6999 26.1 53.2999 23.9 54.9999 22H54.6999Z" fill="white"/>
</svg>
