<svg width="160" height="80" viewBox="0 0 160 80" fill="none" xmlns="http://www.w3.org/2000/svg">
<path d="M34.4001 48V41.9H42.5001V38.1H34.4001V32.6H46.6001V28.8H30.1001V51.6H47.0001V48H34.4001ZM57.6001 35.5L54.0001 46.9L50.2001 35.6H45.8001L52.0001 51.8H55.9001L61.8001 35.6L57.6001 35.5ZM69.6001 35.2C64.7001 35.2 61.2001 38.7 61.2001 43.7C61.2001 48.7 64.6001 52.1 69.4001 52.1C74.3001 52.1 77.8001 48.6 77.8001 43.7C77.9001 38.7 74.5001 35.2 69.6001 35.2ZM73.6001 43.8C73.6001 46.8 72.0001 48.6 69.5001 48.6C67.0001 48.6 65.6001 46.8 65.6001 43.8V43.7C65.6001 40.6 67.1001 38.7 69.6001 38.7C72.1001 38.7 73.6001 40.6 73.6001 43.8ZM79.9001 28.6V51.7H84.2001V28.6H79.9001ZM97.0001 35.5V43.8C97.0001 46.6 96.1001 48.5 93.8001 48.5C91.9001 48.5 90.8001 47.2 90.8001 45.1V35.6H86.5001V45.3C86.5001 49.5 88.8001 52.1 92.4001 52.1C94.5001 52.1 96.0001 51.2 96.8001 49.5V51.8H101.1V35.5H97.0001ZM112.5 39V35.6H109.3V30.2L105.1 32.5V35.6H102.8V39H105.1V47.5C105.2 50.2 105.9 51.6 109 51.8H112.3V48.2H110.4C109.6 48.2 109.2 47.8 109.2 47V39H112.5ZM114.5 29V33.2H118.9V29H114.5ZM114.5 35.5V51.7H118.8V35.5H114.5ZM129.1 35.2C124.2 35.2 120.7 38.7 120.7 43.7C120.7 48.7 124.1 52.1 128.9 52.1C133.8 52.1 137.3 48.6 137.3 43.7C137.5 38.7 134 35.2 129.1 35.2ZM133.1 43.8C133.1 46.8 131.5 48.6 129 48.6C126.5 48.6 125.1 46.8 125.1 43.8V43.7C125.1 40.6 126.6 38.7 129.1 38.7C131.6 38.7 133.1 40.6 133.1 43.8ZM148.4 35.2C146.1 35.2 144.5 36.3 143.7 38.2V35.6H139.4V51.9H143.7V43.6C143.7 40.6 144.9 38.9 147 38.9C149 38.9 149.9 40.1 149.9 42.3V51.8H154.2V42C154 37.5 151.9 35.2 148.4 35.2Z" fill="white"/>
<path d="M25.7 39.4C24.1 39.5 22.6 39.6 21.3 39.5C10 39.2 8.3 33.2 6 28C11.8 24.9 18.9 26.3 22.8 31.4C24.4 33.5 25.4 36.2 25.7 39.4Z" fill="white"/>
<path d="M25.7 40.6C24.8 51.8 14.2 56.4 6 52C6.8 50.1 7.6 48.1 8.8 46.3C10.8 43.3 14 40.8 20.8 40.5C22.2 40.4 23.8 40.4 25.7 40.6Z" fill="white"/>
</svg>
