<svg width="160" height="80" viewBox="0 0 160 80" fill="none" xmlns="http://www.w3.org/2000/svg">
<path d="M145.1 25.8C148.4 25.8 151.2 23 151.2 19.7C151.2 16.4 148.4 13.6 145.1 13.6C141.8 13.6 138.9 16.4 138.9 19.7C138.9 23 141.7 25.8 145.1 25.8Z" fill="white"/>
<path d="M129.5 55.7H138.5V28.7999H129.5V55.7ZM111 46.7C107.9 46.7 106.3 44.2 106.3 41.2C106.3 38.2 107.9 35.9 111 35.9C114.1 35.9 114.5 36.6 115.9 38V44.5C114.6 45.9 112.8 46.7 111 46.7ZM110.9 67.4C120.4 67.4 124.9 62.6999 124.9 54.7999V28.7999H115.9V30.2999C114.3 28.7999 111.9 27.9 109.2 27.9C101.9 27.9 97 33.4 97 41C97 48.6 101.8 54.4 109.2 54.4C116.6 54.4 114.2 53.3 115.9 52V54.7C115.9 57.6 114.2 59.0999 110.3 59.0999C106.4 59.0999 103 57.9 99.4 55.4V64.0999C101.7 65.5999 106.3 67.1999 110.8 67.1999L110.9 67.4ZM77.1 56.5999C80.4 56.5999 82.7 55.2999 84.3 53.7999V55.7H93.1V28.9H84.1V46.0999C83.1 47.5999 81.6 48.5 79.9 48.5C78.2 48.5 76.3 47 76.3 44.7V29H67.3001V47C67.3001 53.3 72 56.7 77 56.7L77.1 56.5999ZM38.6 55.7H63.4001V48.2H50.6L63.1 36V28.7999H38.8V36.0999H51.1L38.6 48.2999V55.7ZM8.80005 55.7H35.3V47H18V40.9H33.6V32.5H18V26.1H35.3V17.7H8.80005V55.7Z" fill="white"/>
</svg>
