<svg width="160" height="80" viewBox="0 0 160 80" fill="none" xmlns="http://www.w3.org/2000/svg">
<path d="M76.3002 25.4C76.2002 25.5 76.2002 25.6 76.2002 27.4C76.2002 29.2 76.2002 29.3 76.3002 29.4H76.4002C76.4002 29.5 79.0002 29.5 79.0002 29.5C81.5002 29.5 81.6002 29.5 81.7002 29.5C81.7002 29.5 81.7002 29.2 81.7002 27.5V25.6H81.6002C81.5002 25.5 81.2002 25.4 78.9002 25.4H76.3002Z" fill="white"/>
<path d="M105.3 25.4C105.2 25.5 105.2 25.6 105.2 37C105.2 48.4 105.2 48.5 105.3 48.6C105.4 48.7 105.5 48.7 108.1 48.7C110.7 48.7 110.8 48.7 110.9 48.7C110.9 48.7 110.9 47.7 110.9 37.1C110.9 26.5 110.9 25.6 110.9 25.5C110.9 25.5 110.5 25.5 108.1 25.5C105.7 25.5 105.4 25.5 105.3 25.6V25.4Z" fill="white"/>
<path d="M39.3998 28C37.5998 28.3 35.6998 28.9 34.2998 29.9C30.9998 32.1 29.0998 35.6 28.8998 39.5C28.6998 43.7 30.7998 47.6 34.2998 49.9C34.9998 50.3 36.0998 50.9 36.8998 51.2C41.2998 52.7 46.0998 51.6 49.3998 48.3C50.8998 46.8 51.8998 45 52.3998 43C52.6998 41.8 52.6998 41.5 52.7998 40C52.7998 38.8 52.7998 38.6 52.6998 38C52.0998 34.9 50.4998 32.3 48.0998 30.4C46.5998 29.3 44.8998 28.6 42.8998 28.2C42.1998 28.1 40.0998 28 39.3998 28.2V28ZM42.5998 31.6C45.8998 32.3 48.4998 34.9 49.1998 38.2C49.2998 38.7 49.2998 38.9 49.2998 39.9C49.2998 40.9 49.2998 41.1 49.1998 41.6C48.9998 42.5 48.5998 43.6 48.1998 44.2L47.9998 44.4L46.5998 42.2C45.7998 41 45.1998 40 45.1998 40C45.1998 40 45.6998 40 46.3998 40H47.6998V39.6C47.6998 38.8 47.3998 37.7 46.9998 36.9C45.9998 34.9 44.0998 33.5 41.8998 33.1C41.2998 33 39.9998 33.1 39.4998 33.1C38.2998 33.4 37.2998 33.9 36.3998 34.6C36.1998 34.8 35.9998 34.9 35.9998 34.9C35.9998 34.9 35.7998 34.6 35.5998 34.2L35.1998 33.5H35.2998C35.5998 33.1 36.4998 32.5 36.8998 32.3C37.6998 31.9 38.4998 31.6 39.3998 31.5C40.0998 31.4 41.6998 31.5 42.2998 31.5L42.5998 31.6ZM35.2998 37.5C35.9998 38.8 36.5998 39.9 36.5998 39.9C36.5998 39.9 35.9998 39.9 35.2998 39.9H33.9998V40.3C34.1998 42 34.7998 43.4 35.9998 44.6C36.9998 45.6 38.0998 46.2 39.4998 46.5C40.1998 46.6 41.3998 46.7 42.0998 46.5C43.2998 46.3 44.5998 45.6 45.3998 44.9L45.6998 44.7L46.0998 45.5L46.4998 46.3L46.1998 46.5C43.5998 48.5 40.0998 48.9 37.1998 47.4C32.9998 45.3 31.2998 40.3 33.3998 36.1C33.5998 35.6 33.9998 35.1 33.9998 35.1C33.9998 35.1 34.5998 36.2 35.2998 37.5Z" fill="white"/>
<path d="M121.1 30.7C120 30.8 118.9 31.1 118 31.6C116.9 32.1 116.1 32.7 115.3 33.6C113.9 35 113.1 36.7 112.8 38.7C112.7 39.5 112.8 40.9 112.8 41.6C113.4 44.4 115.1 46.8 117.7 48.1C119.1 48.8 120.5 49.2 122.1 49.2C123.6 49.2 125 48.9 126.3 48.2C126.9 47.9 126.9 47.9 127 48.2C127 48.4 127 48.5 127.1 48.5C127.1 48.5 127.7 48.5 129.8 48.5C131.9 48.5 132.4 48.5 132.5 48.5C132.5 48.5 132.5 47.7 132.5 39.7V30.9H132.4C132.3 30.8 132 30.7 129.7 30.8H127.1V30.9C127.1 30.9 127.1 31.1 127.1 31.4C127.1 31.7 127.1 31.8 127.1 31.8C127.1 31.8 126.8 31.7 126.4 31.5C124.8 30.7 123 30.4 121.2 30.6L121.1 30.7ZM123.8 35.8C124.6 36 125.3 36.3 125.9 36.9C126.8 37.8 127.3 39.2 127.1 40.6C126.8 42.8 125.2 44.3 123.1 44.3C121.9 44.3 120.9 43.9 120.1 43.1C119.5 42.5 119.1 41.8 118.9 41.1C118.8 40.6 118.8 39.7 118.9 39.2C119.1 38.3 119.7 37.3 120.4 36.8C121.4 36 122.6 35.7 123.8 35.8Z" fill="white"/>
<path d="M16.8002 30.8C15.8002 30.9 14.8002 31.3 13.9002 31.7C13.3002 32 13.3002 32 13.3002 31.6C13.3002 31.2 13.3002 31.2 13.2002 31.1H13.1002C13.1002 31 10.5002 31 10.5002 31C8.0002 31 7.9002 31 7.8002 31.1C7.7002 31.2 7.7002 31.3 7.7002 42.9C7.7002 54.5 7.7002 54.6 7.7002 54.7C7.7002 54.7 8.0002 54.7 10.4002 54.7C12.8002 54.7 13.0002 54.7 13.1002 54.7C13.1002 54.7 13.1002 54.3 13.1002 51.5C13.1002 48.7 13.1002 48.3 13.1002 48.3C13.1002 48.3 13.3002 48.3 13.7002 48.5C14.4002 48.8 15.3002 49.1 16.1002 49.3C16.7002 49.4 16.8002 49.4 17.9002 49.4C19.0002 49.4 19.2002 49.4 19.7002 49.3C23.5002 48.5 26.4002 45.7 27.2002 41.9C27.7002 39.5 27.2002 37 25.8002 35C24.3002 32.7 22.0002 31.3 19.2002 30.9C18.6002 30.9 17.2002 30.9 16.6002 30.9L16.8002 30.8ZM17.9002 35.8C18.9002 35.8 20.0002 36.5 20.7002 37.4C21.0002 37.8 21.4002 38.6 21.5002 39C22.0002 41.3 20.7002 43.5 18.4002 44.1C17.8002 44.3 16.8002 44.3 16.2002 44.1C15.2002 43.8 14.5002 43.3 13.9002 42.4C13.4002 41.7 13.2002 40.9 13.2002 40C13.2002 38.7 13.6002 37.7 14.4002 36.9C14.9002 36.4 15.3002 36.1 15.9002 35.9C16.3002 35.8 17.0002 35.7 17.3002 35.7C17.3002 35.7 17.6002 35.7 17.8002 35.7L17.9002 35.8Z" fill="white"/>
<path d="M63.8002 30.8C62.8002 30.9 61.8002 31.3 60.9002 31.7C60.3002 32 60.3002 32 60.3002 31.6C60.3002 31.2 60.3002 31.2 60.2002 31.1H60.1002C60.1002 31 57.5002 31 57.5002 31C55.2002 31 54.9002 31 54.8002 31H54.7002V42.8C54.7002 54.1 54.7002 54.5 54.7002 54.6C54.7002 54.6 55.0002 54.6 57.4002 54.6C59.8002 54.6 60.0002 54.6 60.0002 54.6C60.2002 54.5 60.2002 54.3 60.2002 51.2C60.2002 48.1 60.2002 48.1 60.2002 48C60.2002 48 60.4002 48 60.7002 48.2C61.6002 48.7 62.8002 49.1 63.9002 49.2C64.7002 49.3 66.1002 49.2 66.9002 49.1C70.1002 48.4 72.6002 46.3 73.8002 43.4C74.5002 41.7 74.7002 39.8 74.3002 37.9C74.1002 36.8 73.5002 35.5 72.8002 34.5C72.4002 33.9 71.2002 32.7 70.6002 32.3C69.3002 31.4 67.9002 30.9 66.4002 30.6C65.8002 30.6 64.4002 30.5 63.8002 30.6V30.8ZM65.3002 35.9C66.8002 36.2 68.0002 37.4 68.4002 38.9C68.5002 39.2 68.5002 39.4 68.5002 40.1C68.5002 40.8 68.5002 41.3 68.1002 42C67.3002 43.7 65.4002 44.6 63.5002 44.3C61.9002 44 60.7002 42.9 60.3002 41.2C60.1002 40.6 60.1002 39.6 60.3002 38.9C60.5002 38 61.1002 37.2 61.7002 36.6C62.0002 36.3 62.8002 36 63.2002 35.9C63.8002 35.7 64.6002 35.7 65.3002 35.9Z" fill="white"/>
<path d="M92.7001 30.8C91.7001 30.9 90.6001 31.3 89.8001 31.7C89.2001 32 89.2001 32 89.2001 31.5C89.2001 31 89.5001 30.9 86.4001 30.9C83.3001 30.9 83.8001 30.9 83.7001 31C83.6001 31.1 83.6001 31.2 83.6001 42.8C83.6001 54.4 83.6001 54.5 83.7001 54.6C83.7001 54.6 83.9001 54.7 86.4001 54.7C88.9001 54.7 89.0001 54.7 89.1001 54.6C89.2001 54.5 89.2001 54.4 89.2001 51.3C89.2001 48.2 89.2001 48.1 89.2001 48.1C89.2001 48.1 89.4001 48.1 89.5001 48.2C90.2001 48.6 91.2001 49 92.2001 49.2C92.9001 49.3 94.3001 49.4 95.1001 49.2C99.3001 48.7 102.7 45.4 103.3 41.3C103.4 40.6 103.3 39.4 103.3 38.7C102.7 34.6 99.5001 31.4 95.3001 30.8C94.6001 30.7 93.3001 30.8 92.6001 30.8H92.7001ZM93.8001 35.8C95.5001 36 97.0001 37.4 97.4001 39.1C97.5001 39.6 97.5001 40.5 97.4001 41.1C96.9001 42.9 95.3001 44.2 93.5001 44.3C91.3001 44.5 89.4001 42.8 89.2001 40.5C89.2001 40 89.2001 39.3 89.3001 38.8C89.6001 37.7 90.3001 36.7 91.3001 36.2C91.9001 35.9 92.7001 35.7 93.3001 35.7C93.3001 35.7 93.6001 35.7 93.8001 35.8Z" fill="white"/>
<path d="M76.3002 31C76.2002 31.1 76.2002 39.8 76.2002 39.8C76.2002 48.1 76.2002 48.5 76.3002 48.6C76.3002 48.6 76.6002 48.6 79.0002 48.6C81.4002 48.6 81.6002 48.6 81.7002 48.6C81.7002 48.6 81.7002 47.2 81.7002 39.7V30.9H81.6002C81.5002 30.8 81.2002 30.7 78.9002 30.7H76.2002L76.3002 31Z" fill="white"/>
<path d="M134.5 31.1C134.5 31.1 134.4 31.1 134.3 31.2C134.3 31.2 134.9 33.1 137.2 39.4C138.8 43.9 140.2 47.6 140.2 47.6C140.2 47.6 139.8 49 139.1 51C138.5 52.8 138 54.3 138 54.3C138 54.3 138 54.4 138 54.5C138 54.5 138.4 54.5 141 54.5C143.6 54.5 143.9 54.5 144 54.5C144 54.5 144.6 52.9 145.3 51C146 49.1 147.8 43.9 149.4 39.5C151.9 32.6 152.3 31.4 152.3 31.2C152.3 31.1 149.5 31.1 149.5 31.1C146.9 31.1 146.7 31.1 146.6 31.1C146.6 31.1 145.8 33.2 145 35.6C144.2 38.1 143.5 40 143.4 40.1C143.3 40.1 143.1 40.1 143 40.1C143 40.1 142.2 38 141.3 35.6C139.9 31.8 139.6 31.1 139.5 31.1C139.5 31.1 138.8 31.1 136.9 31.1C135 31.1 134.4 31.1 134.3 31.1H134.5Z" fill="white"/>
</svg>
