<svg width="160" height="80" viewBox="0 0 160 80" fill="none" xmlns="http://www.w3.org/2000/svg">
<path d="M94.3002 28.2V13.2C94.3002 8.79998 93.0002 6.79998 91.4002 5.49998C89.7002 3.99998 86.5002 2.59998 80.0002 2.59998C73.5002 2.59998 70.4002 3.89998 68.6002 5.49998C67.1002 6.89998 65.7002 8.79998 65.7002 13.2V28.5C65.7002 30 66.0002 31.4 66.6002 32.7C67.2002 34 68.0002 35.2 69.1002 36.2L73.2002 40C73.2002 40 73.4002 40.2 73.5002 40.2C73.6002 40.2 73.8002 40.2 73.9002 40.2C74.0002 40.2 74.2002 40.2 74.3002 40.1C74.4002 40.1 74.5002 39.9 74.6002 39.8L78.1002 35.1C78.2002 34.9 78.3002 34.7 78.3002 34.5C78.3002 34.3 78.2002 34.1 78.0002 33.9L75.1002 31.2C74.5002 30.6 74.0002 29.9 73.6002 29.1C73.3002 28.3 73.1002 27.5 73.1002 26.6V16.2C73.1002 13.1 74.3002 11.7 74.8002 11.3C75.3002 10.9 76.4002 9.89998 80.1002 9.89998C83.8002 9.89998 84.9002 10.9 85.4002 11.3C85.9002 11.7 87.1002 13 87.1002 16.2V26C87.1002 27.6 86.6002 29.1 85.6002 30.4L77.0002 42.1C76.9002 42.3 76.8002 42.5 76.8002 42.7C76.8002 42.9 76.9002 43.1 77.1002 43.3L80.1002 46.1L81.3002 47.2L82.1002 47.9L83.1002 48.8C83.4002 49.1 83.9002 49.3 84.4002 49.3H92.6002C92.8002 49.3 93.0002 49.3 93.1002 49.1C93.3002 49 93.4002 48.8 93.4002 48.7C93.4002 48.5 93.4002 48.3 93.4002 48.2C93.4002 48.1 93.3002 47.9 93.1002 47.7L86.6002 41.7L92.2002 34.2C93.5002 32.4 94.3002 30.2 94.3002 27.9V28.2Z" fill="white"/>
<path d="M119.2 64.2V74.4L114.4 65.6C113.8 64.6 113.4 64.2 112.7 64.2C112 64.2 111.4 64.7 111.4 65.8V77H113.1V66.8L117.9 75.6C118.5 76.6 118.9 77 119.6 77C120.3 77 120.9 76.5 120.9 75.4V64.2H119.2Z" fill="white"/>
<path d="M85.2 64.2H82.9L78.2 69.2V64.2H76.5V77H78.2V71.8L78.7 71.3L83 77.1H85.2L79.8 70.1L85.2 64.4V64.2Z" fill="white"/>
<path d="M102.9 65C101.9 64.4 100.9 64.2 99.8001 64.2H96.6001V77H98.4001V72.5H99.8001C100.9 72.5 102 72.4 102.9 71.7C103.9 71.1 104.6 70 104.6 68.3C104.6 66.6 103.8 65.5 102.9 64.9V65ZM102 70.3C101.5 70.7 100.8 70.9 99.8001 70.9H98.4001V65.8H99.8001C100.8 65.8 101.5 66 102 66.4C102.3 66.6 102.5 66.9 102.7 67.3C102.9 67.6 103 68 103 68.4C103 68.8 103 69.1 102.7 69.5C102.5 69.8 102.3 70.1 102 70.3Z" fill="white"/>
<path d="M47.0001 75.5C47.2001 75.2 47.4001 74.9 47.6001 74.6C48.1001 73.7 48.1001 72.6 48.1001 71.8V69.3C48.1001 68.6 48.1001 67.5 47.6001 66.5C46.8001 64.8 45.3001 64 43.6001 64C41.9001 64 40.4001 64.8 39.6001 66.5C39.1001 67.4 39.1001 68.5 39.1001 69.3V71.8C39.1001 72.5 39.1001 73.6 39.6001 74.6C40.4001 76.3 41.9001 77.1 43.6001 77.1C44.3001 77.1 44.9001 77 45.5001 76.7L46.9001 78.5H49.3001L47.0001 75.5ZM46.4001 71.9C46.4001 72.5 46.4001 73.3 46.1001 73.9C45.8001 74.5 45.1001 75.5 43.6001 75.5C42.2001 75.5 41.4001 74.5 41.1001 73.9C40.8001 73.3 40.8001 72.4 40.8001 71.8V69.4C40.8001 68.8 40.8001 67.9 41.1001 67.3C41.4001 66.7 42.1001 65.7 43.6001 65.7C45.1001 65.7 45.8001 66.7 46.1001 67.3C46.4001 67.9 46.4001 68.8 46.4001 69.4V71.9Z" fill="white"/>
<path d="M69.2 66.3C70.4 65.4 71.7 65.3 73.8 65.8V64.6C73.8 64.6 72.8 64 71.2 64C69.6 64 68.6 64.4 67.9 65.1C67 65.9 66.4 67.1 66.2 69C66.1 70.1 66.1 71.2 66.2 72.3C66.4 74.2 67 75.4 67.9 76.2C68.6 76.9 69.6 77.3 71.2 77.3C72.8 77.3 73.8 76.7 73.8 76.7V75.5C71.7 76 70.4 75.9 69.2 75C68 74.1 67.8 72.4 67.8 70.7C67.8 68.9 68 67.3 69.2 66.4V66.3Z" fill="white"/>
<path d="M91.6998 65.5C92.5998 65.5 93.3998 65.6 94.2998 65.8V64.4C93.1998 64.1 91.9998 64 90.8998 64C90.1998 64 89.5998 64.1 88.8998 64.3C87.9998 64.5 87.3998 65 87.1998 65.4C86.9998 65.7 86.8998 66 86.8998 66.3C86.8998 66.6 86.8998 67 86.9998 67.3C86.9998 67.3 86.9998 67.4 86.9998 67.5C87.2998 68.4 87.7998 69 88.4998 69.8C89.2998 70.6 90.7998 72.1 91.4998 72.9C91.8998 73.4 92.3998 74.1 92.1998 74.7C91.8998 75.3 90.7998 75.8 89.3998 75.7C88.4998 75.7 87.6998 75.6 86.7998 75.4V76.8C86.7998 76.8 87.8998 77.3 90.1998 77.2C92.5998 77.2 93.4998 76.5 93.9998 75.8C94.1998 75.4 94.3998 75 94.3998 74.6C94.3998 74.5 94.3998 74.4 94.3998 74.3C94.3998 73.6 94.1998 73.2 93.3998 72.2C92.4998 71.1 90.7998 69.5 89.9998 68.7L89.7998 68.5C89.1998 67.9 88.5998 67.2 88.8998 66.5C89.1998 65.8 90.4998 65.5 91.7998 65.6L91.6998 65.5Z" fill="white"/>
<path d="M63.6999 64.2H61.8999V77H63.6999V64.2Z" fill="white"/>
<path d="M108.6 64.2H106.8V77H108.6V64.2Z" fill="white"/>
<path d="M52.2 64.2H50.5V72.6C50.5 74.1 51 77.2 54.8 77.2C58.6 77.2 59.1 74.1 59.1 72.6V64.2H57.4V72.6C57.4 75.3 55.6 75.6 54.8 75.6C54 75.6 52.2 75.3 52.2 72.6V64.2Z" fill="white"/>
</svg>
