<svg width="160" height="80" viewBox="0 0 160 80" fill="none" xmlns="http://www.w3.org/2000/svg">
<path d="M42.0001 69C42.0001 69.2 42.0001 69.4 42.0001 69.6C42.0001 69.9 42.1001 70.1 42.2001 70.5C43.5001 70.1 44.7001 69.5 45.9001 68.9C47.1001 68.3 48.2001 67.5 49.4001 66.8C50.3001 68.1 51.1001 69.3 52.1001 70.7C51.7001 71 51.3001 71.3 50.8001 71.6C49.4001 72.6 48.0001 73.3 46.4001 74C45.2001 74.6 43.9001 75 42.6001 75.3C41.8001 75.5 41.0001 75.7 40.1001 75.9C39.7001 76 39.3001 76 38.8001 76.1C37.2001 76.3 35.5001 76.2 33.9001 76.2C33.2001 76.2 32.6001 76.1 31.9001 75.9C30.8001 75.7 29.8001 75.5 28.7001 75.2C27.3001 74.8 25.9001 74.2 24.6001 73.6C22.7001 72.7 21.0001 71.6 19.4001 70.3C18.7001 69.7 18.0001 69.2 17.4001 68.5C16.7001 67.8 16.1001 67 15.5001 66.3C14.7001 65.4 14.1001 64.4 13.5001 63.4C12.7001 62.1 12.1001 60.8 11.5001 59.4C11.0001 58.2 10.6001 57.1 10.4001 55.8C10.2001 54.8 9.9001 53.8 9.8001 52.7C9.6001 51.2 9.6001 49.7 9.6001 48.3C9.6001 47.5 9.6001 46.7 9.7001 45.9C9.8001 45.1 10.0001 44.3 10.2001 43.6C10.4001 42.6 10.7001 41.7 10.9001 40.7C11.4001 39 12.2001 37.3 13.1001 35.8C13.9001 34.4 14.8001 33.1 15.7001 31.9C16.4001 31 17.2001 30.2 18.1001 29.4C19.6001 27.9 21.3001 26.7 23.1001 25.6C24.5001 24.8 26.0001 24.1 27.5001 23.6C28.2001 23.3 29.0001 23.2 29.7001 23C29.9001 22.9 30.1001 22.9 30.3001 22.8C30.3001 22.6 30.3001 22.4 30.3001 22.2C30.3001 21 30.9001 20.1 31.8001 19.4C32.1001 19.1 32.4001 18.9 32.8001 18.6C32.3001 18.4 31.9001 18.3 31.5001 18.1C31.9001 17.9 32.2001 17.7 32.5001 17.5C33.4001 17 33.9001 16.2 34.1001 15.2C34.2001 14.5 34.2001 13.7 34.3001 13C34.3001 12.6 34.4001 12.3 34.5001 12C35.4001 10.4 36.3001 8.70004 37.3001 7.10004C38.1001 5.80004 39.2001 4.80004 40.6001 4.10004C41.1001 3.90004 41.6001 3.80004 42.1001 3.70004C43.2001 3.60004 44.2001 3.80004 45.2001 4.20004C46.4001 4.60004 47.1001 5.50004 47.5001 6.60004C47.9001 7.80004 48.3001 9.10004 48.6001 10.3C48.6001 10.4 48.7001 10.5 48.7001 10.6C48.9001 11.3 49.3001 11.5 49.9001 11.4C51.1001 11.3 52.3001 11.4 53.5001 11.4C54.0001 11.4 54.6001 11.5 55.1001 11.6C55.5001 11.7 56.0001 11.7 56.4001 11.7C57.4001 11.8 58.4001 12 59.4001 12.3C60.1001 12.5 60.6001 13.4 60.5001 14.4C60.3001 15.8 59.9001 17.1 59.3001 18.3C58.5001 20 57.5001 21.5 56.1001 22.7C55.3001 23.4 54.6001 24.2 53.8001 25C53.4001 25.4 53.1001 26 52.8001 26.5C52.4001 27.1 52.5001 27.7 52.8001 28.3C53.2001 29.1 53.8001 29.7 54.4001 30.3C55.5001 31.4 56.5001 32.6 57.4001 34C56.3001 35.1 55.0001 36.1 53.8001 37.1C53.3001 36.4 53.0001 35.8 52.5001 35.1C52.4001 35.3 52.2001 35.4 52.2001 35.6C51.7001 36.5 51.0001 37.2 50.1001 37.6C49.2001 38 48.8001 38.7 48.6001 39.6C48.2001 41.1 47.4001 42.4 46.6001 43.6C46.3001 44 46.0001 44.3 45.7001 44.6C44.3001 45.9 43.3001 47.5 42.6001 49.3C42.3001 50.1 41.8001 50.8 41.4001 51.5C41.1001 52.1 40.8001 52.6 40.6001 53.2C40.4001 54 40.4001 54.7 40.8001 55.5C41.1001 56.1 41.3001 56.8 41.3001 57.5C41.3001 57.9 41.5001 58.2 41.6001 58.6C41.7001 60 41.9001 61.4 41.9001 62.8C42.0001 64.3 41.9001 65.8 41.9001 67.2C41.9001 67.7 41.8001 68.1 41.8001 68.6C42.0001 68.8 42.0001 68.9 42.0001 69ZM44.4001 28.9C44.5001 29.3 44.7001 29.7 44.8001 30.1C44.8001 30.7 44.8001 31.2 44.8001 31.8C44.8001 32.3 44.5001 32.8 44.0001 33.2C43.9001 33 43.8001 32.8 43.7001 32.6C43.0001 31.3 42.2001 30.1 41.2001 29C40.9001 28.7 40.7001 28.4 40.5001 28.1C40.0001 27.3 39.8001 26.4 39.8001 25.4C39.8001 25 39.7001 24.6 39.7001 24.2C39.7001 23.5 39.7001 22.9 39.4001 22.2C39.2001 22.9 39.3001 23.5 39.3001 24.2C39.3001 24.5 39.3001 24.9 39.3001 25.2C39.3001 25.8 39.2001 26.3 38.9001 26.8C38.5001 27.4 38.0001 28 37.6001 28.5C37.0001 29.2 36.5001 30 36.2001 30.9C35.8001 32 35.8001 33.2 35.8001 34.4C35.8001 34.7 36.0001 34.9 36.3001 35C37.5001 35.4 38.7001 35.6 39.9001 35.7C40.8001 35.8 41.7001 35.7 42.6001 35.6C43.0001 35.6 43.4001 35.6 43.7001 35.5C44.4001 35.3 45.0001 35.5 45.6001 35.6C46.3001 35.8 46.8001 36.2 47.3001 36.7C47.8001 37.1 48.3001 37.6 49.0001 37.6C49.6001 37.6 50.0001 37.3 50.5001 37.1C51.2001 36.7 51.8001 36.2 52.0001 35.3C52.2001 34.8 52.3001 34.2 52.3001 33.7C52.3001 33.6 52.4001 33.5 52.5001 33.3C53.1001 33.9 53.6001 34.4 54.0001 34.9C54.8001 34.3 55.6001 33.6 56.4001 33C55.0001 31.4 53.7001 29.6 51.9001 28.3C51.8001 28.4 51.7001 28.4 51.7001 28.5C51.4001 29 51.1001 29.6 51.1001 30.3C51.1001 30.9 50.9001 31.4 50.6001 31.9C50.1001 32.6 49.6001 33.2 48.9001 33.6C48.3001 34.1 47.6001 34.5 46.8001 34.7C46.3001 33.7 46.0001 32.6 46.0001 31.5C46.0001 31.4 46.0001 31.3 46.0001 31.2H45.9001C45.9001 31.3 45.8001 31.4 45.8001 31.5C45.5001 32.4 45.7001 33.3 45.9001 34.2C46.0001 34.4 46.0001 34.7 46.1001 34.9C45.5001 35 45.0001 34.9 44.5001 34.5C44.3001 34.4 44.2001 34.2 44.4001 34C44.6001 33.7 44.7001 33.4 44.8001 33.1C45.2001 31.9 45.4001 30.7 44.8001 29.4C44.7001 29.1 44.6001 28.8 44.5001 28.6C44.4001 28.5 44.3001 28.3 44.2001 28.2C44.2001 28.2 44.1001 28.2 44.1001 28.3C44.3001 28.7 44.4001 28.8 44.4001 28.9ZM31.1001 75.1C31.2001 75 31.4001 74.9 31.4001 74.8C31.6001 74.5 31.9001 74.4 32.3001 74.6C32.5001 74.7 32.7001 74.6 32.9001 74.6C32.8001 74.3 32.7001 74.1 32.6001 74C32.4001 73.7 32.4001 73.5 32.6001 73.2C32.7001 73 32.8001 72.8 32.9001 72.5C32.6001 72.5 32.4001 72.5 32.2001 72.6C31.9001 72.6 31.6001 72.6 31.4001 72.2C31.3001 72 31.1001 71.9 31.0001 71.8C30.9001 72.2 30.8001 72.6 30.6001 72.9C30.4001 73.2 30.0001 73.2 29.6001 73.4C29.8001 73.5 29.9001 73.7 30.1001 73.7C30.7001 73.9 30.8001 74.3 30.7001 74.8C30.7001 74.9 30.7001 75 30.7001 75.1C31.0001 75.1 31.0001 75.1 31.1001 75.1ZM18.5001 32.9C18.4001 32.9 18.2001 32.9 18.1001 32.9C17.7001 33.1 17.4001 32.9 17.2001 32.5C17.1001 32.4 16.9001 32.3 16.7001 32.1C16.6001 32.4 16.5001 32.6 16.5001 32.8C16.5001 33.1 16.4001 33.2 16.1001 33.3C15.9001 33.3 15.7001 33.5 15.3001 33.6C16.1001 34 16.7001 34.4 16.5001 35.2C16.5001 35.2 16.5001 35.3 16.6001 35.3C16.9001 35.1 17.1001 34.8 17.4001 34.7C17.7001 34.6 18.1001 34.7 18.5001 34.8C18.4001 34.6 18.4001 34.4 18.3001 34.3C18.0001 33.9 18.0001 33.5 18.4001 33.2C18.4001 33.2 18.4001 33.1 18.5001 32.9C18.7001 33 18.7001 32.9 18.5001 32.9ZM29.4001 39.4L29.5001 39.5C29.7001 39.4 30.0001 39.4 30.2001 39.3C30.8001 39.1 31.3001 38.8 31.9001 38.6C33.2001 38.3 33.6001 37 33.6001 35.9C33.1001 36.1 32.6001 36.3 32.1001 36.5L32.0001 36.4C32.7001 35.8 33.3001 35.1 33.7001 34.2C34.1001 33.3 33.9001 32.4 33.6001 31.3C33.2001 32.2 32.9001 32.9 32.6001 33.7C32.2001 34.6 31.7001 35.5 31.3001 36.4C30.6001 37.4 30.0001 38.4 29.4001 39.4ZM29.6001 28C29.5001 28 29.4001 28 29.3001 28C27.9001 28.4 26.5001 29.1 25.2001 29.9C24.0001 30.6 22.9001 31.4 21.9001 32.3C20.8001 33.2 19.8001 34.3 18.9001 35.5C18.1001 36.5 17.4001 37.6 16.8001 38.8C16.2001 39.9 15.8001 41 15.4001 42.2C15.1001 43.1 14.9001 43.9 14.8001 44.8C14.7001 45.1 14.7001 45.3 14.7001 45.6C15.2001 45.7 15.7001 45.7 16.1001 45.8C17.0001 46.1 17.7001 45.9 18.5001 45.4C19.2001 45 19.6001 44.4 20.1001 43.8C20.7001 43 21.3001 42.3 22.0001 41.5C22.5001 40.9 23.0001 40.3 23.6001 39.6C23.9001 39.2 24.3001 38.8 24.6001 38.5C25.2001 37.9 25.9001 37.3 26.5001 36.6C26.8001 36.2 27.1001 35.8 27.2001 35.4C27.5001 34.5 27.9001 33.6 28.4001 32.8C28.9001 31.9 29.2001 30.9 29.3001 29.9C29.3001 29.1 29.5001 28.6 29.6001 28ZM14.4001 50.9C14.7001 55 16.0001 58.6 18.3001 61.9C18.9001 62.7 19.5001 63.6 20.3001 64.3C20.3001 63.9 20.3001 63.7 20.3001 63.5C20.2001 62.1 20.1001 60.7 20.1001 59.3C20.1001 56.9 19.9001 54.4 20.1001 52C20.1001 51.4 20.3001 50.8 20.4001 50.2C20.6001 49.3 21.0001 48.5 21.3001 47.7C21.4001 47.3 21.6001 46.9 21.8001 46.4C21.5001 46.5 21.4001 46.5 21.3001 46.6C20.6001 47.2 19.8001 47.9 19.1001 48.5C18.6001 49 18.1001 49.2 17.4001 49.4C16.9001 49.6 16.3001 49.7 16.0001 50C15.5001 50.4 15.1001 50.8 14.4001 50.9ZM23.0001 44.4C23.3001 44.4 23.4001 44.3 23.6001 44.3C24.1001 44.3 24.7001 44.1 25.3001 44.2C26.4001 44.5 27.2001 45.2 27.8001 46C29.0001 47.6 29.7001 49.4 30.4001 51.2C30.7001 51.8 30.8001 52.5 31.0001 53.2C31.2001 54.2 31.0001 55.1 30.8001 56C30.7001 56.3 30.7001 56.5 30.9001 56.7C32.2001 56.8 33.5001 56.7 34.8001 56.4C35.7001 56.2 36.5001 56 37.4001 55.8C38.2001 55.6 38.9001 55.3 39.6001 55.1C40.3001 54.9 40.4001 54.6 40.3001 53.9C40.0001 53.8 39.8001 53.7 39.5001 53.6C37.6001 52.8 35.8001 51.8 34.1001 50.5C32.4001 49.3 30.7001 48.1 29.3001 46.6C28.6001 45.8 27.8001 45.1 27.1001 44.2C26.5001 43.5 25.9001 42.7 25.8001 41.5C24.6001 42.4 23.7001 43.2 23.0001 44.4ZM34.3001 71.2C34.2001 70.9 34.2001 70.6 34.1001 70.3C33.5001 68.8 32.9001 67.2 32.3001 65.7C31.9001 64.7 31.4001 63.6 31.3001 62.5C31.1001 61 30.7001 59.5 30.4001 58.1C30.4001 57.9 30.3001 57.7 30.2001 57.5C29.9001 58.2 29.7001 58.7 29.5001 59.3C29.1001 60.4 28.7001 61.5 28.3001 62.7C28.1001 63.3 27.9001 63.9 27.9001 64.6C27.9001 65.6 27.8001 66.5 27.6001 67.5C27.5001 68.1 27.4001 68.7 27.4001 69.3C27.4001 69.5 27.4001 69.7 27.7001 69.8C28.8001 70.2 29.8001 70.6 31.0001 70.9C31.7001 71.1 32.4001 71.1 33.0001 71.3C33.3001 71.3 33.8001 71.2 34.3001 71.2ZM39.0001 71.9C39.0001 72 39.0001 72.1 39.0001 72.1C39.1001 73 39.2001 73.8 39.3001 74.7C39.3001 75 39.5001 75.1 39.7001 75C40.2001 74.9 40.8001 74.9 41.3001 74.7C43.2001 74.3 45.1001 73.6 46.9001 72.8C47.6001 72.5 48.3001 72.1 48.9001 71.7C49.5001 71.4 50.1001 71 50.6001 70.6C50.0001 69.7 49.4001 68.8 48.8001 67.9C45.8001 70.1 42.6001 71.4 39.0001 71.9ZM15.7001 64.9C18.2001 68.3 21.2001 70.8 24.9001 72.7C25.4001 71.7 25.9001 70.8 26.3001 69.8C23.1001 68.1 20.4001 65.9 18.2001 63C17.3001 63.7 16.5001 64.3 15.7001 64.9ZM10.6001 51.3C11.3001 51.2 12.0001 51.2 12.8001 51.1C13.1001 51.1 13.4001 51 13.7001 51C13.6001 47.4 13.8001 43.8 15.3001 40.5C14.3001 40 12.7001 39.4 12.3001 39.5C10.8001 43.2 10.3001 47.1 10.6001 51.3ZM21.2001 27.8C21.7001 28.5 22.2001 29.2 22.7001 29.9C23.0001 30.3 23.0001 30.3 23.5001 30.1C24.4001 29.6 25.3001 29 26.2001 28.5C26.9001 28.1 27.6001 27.8 28.3001 27.6C28.9001 27.4 29.4001 27.2 29.9001 27C30.0001 25.9 30.0001 24.9 30.1001 23.8C29.4001 23.6 28.8001 24 28.1001 24.2C25.7001 25 23.4001 26.2 21.2001 27.8ZM50.3001 20.2C50.5001 20.1 50.8001 20.1 51.0001 20C51.6001 19.6 52.2001 19.5 52.9001 19.4C53.1001 19.4 53.2001 19.3 53.3001 19.1C53.9001 18.2 54.7001 17.3 55.5001 16.6C55.6001 16.5 55.7001 16.5 55.8001 16.4C55.3001 15.9 55.0001 15.7 54.4001 15.5C53.4001 15.2 52.5001 14.8 51.4001 14.8C51.0001 14.8 50.7001 14.8 50.3001 14.6C49.9001 14.5 49.6001 14.5 49.2001 14.5C49.0001 15.9 48.8001 16.2 48.4001 16.7C48.1001 17.1 48.1001 17.3 48.4001 17.7C49.2001 18.6 49.7001 19.3 50.3001 20.2ZM12.9001 59.8C13.1001 59.7 13.2001 59.7 13.2001 59.7C13.5001 59.3 13.8001 59.1 14.4001 59.3C14.6001 59.4 14.8001 59.3 15.0001 59.3C14.9001 59 14.8001 58.7 14.7001 58.5C14.6001 58.3 14.6001 58.2 14.7001 58C14.9001 57.8 15.0001 57.6 15.1001 57.3C14.6001 57.3 14.3001 57.3 13.9001 57.3C13.7001 57 13.4001 56.8 13.2001 56.5C13.1001 56.9 13.0001 57.4 12.8001 57.6C12.6001 57.9 12.2001 57.9 11.8001 58.1C12.4001 58.5 13.2001 58.7 12.9001 59.8Z" fill="white"/>
<path d="M133.6 41.1C133.7 41.4 133.7 41.7 133.8 42C134.2 42.9 134 43.9 134 44.8C134 45.2 133.9 45.6 133.8 46C133.8 46.2 133.8 46.3 133.8 46.5C133.8 47 133.9 47.4 133.6 47.9C133.5 48 133.6 48.3 133.6 48.4C133.6 48.6 133.6 48.8 133.4 49C133.3 49 133.3 49.2 133.3 49.3C133.3 50 133 50.7 132.9 51.4C132.7 52.1 132.6 52.8 132.4 53.5C132.4 53.6 132.4 53.7 132.4 53.8C132.7 53.9 133 53.9 133.3 53.6C133.9 52.9 134.6 52.1 135.2 51.4C136.1 50.4 137 49.3 137.9 48.3C138.5 47.6 139 46.9 139.5 46.1C139.7 45.8 140 45.5 140.2 45.1C140.4 44.9 140.5 44.9 140.7 45.1C141.2 45.5 141.3 46.1 140.8 46.6C140.5 46.9 140.4 47.2 140.1 47.4C139.9 47.6 139.8 48.1 139.5 48.2C139.1 48.5 139 48.9 138.7 49.2C137.8 50.3 136.9 51.4 136 52.5C134.7 53.9 133.3 55.3 131.8 56.6C131.4 56.9 131.1 57.2 130.8 57.6C130.6 57.8 130.5 58 130.4 58.3C130.3 58.7 130.1 59.1 129.9 59.4C129.5 60.2 129 61 128.6 61.9C128.4 62.4 128 62.6 127.8 63.1C127.6 63.5 127.4 63.9 127.1 64.2C127 64.3 127 64.6 126.9 64.8C126.8 64.8 126.6 64.8 126.6 64.9C126.5 65.5 126 65.9 125.6 66.4C125.5 66.6 125.5 66.8 125.4 67.1C125.2 67.2 124.9 67.3 124.8 67.7C124.7 68 124.4 68.2 124.2 68.5C123.2 70 121.9 71.3 120.6 72.5C119.4 73.6 118 74.5 116.4 75C114.8 75.5 113.4 74.3 113.2 73C113 71.8 113.4 70.7 114 69.7C114.6 68.7 115.3 67.7 116.2 67C117 66.3 117.6 65.4 118.6 64.9C119 64.3 119.7 64.1 120.2 63.6C120.6 63.3 121 62.9 121.5 62.7C121.8 62.5 122.1 62.2 122.4 62C123.5 61.2 124.6 60.4 125.7 59.6C126.6 59 127.5 58.3 128.3 57.6C128.6 57.3 129.1 57 129 56.4C129 56.2 129.2 56 129.3 55.8C129.4 55.5 129.6 55.2 129.4 54.9C129.2 54.7 129.1 54.6 128.8 54.8C128.6 55 128.4 55.2 128.2 55.4C127.6 56.1 126.7 56.5 125.8 56.8C125.3 57 124.9 57 124.4 57C123 57 122.2 56.2 121.5 55.1C121.5 55 121.4 54.9 121.5 54.9C121.5 54.6 121.4 54.5 121.2 54.4C121.2 54.1 121.3 53.9 121.3 53.7C121.2 53.7 121.1 53.6 121 53.6C120.5 53.2 120.5 53.2 120.1 53.6C119.9 53.8 119.8 54 119.6 54.2C119.1 54.7 118.7 55.2 118.2 55.6C118.1 55.7 117.9 55.9 117.8 56.1C117.7 56.2 117.6 56.3 117.5 56.4C116.6 57 115.8 57.6 114.9 58.3C114.3 58.7 113.7 58.9 113 59.2C112.6 59.4 112.1 59.5 111.7 59.5C111.1 59.5 110.5 59.4 109.9 59.2C108.7 58.8 107.8 58 106.9 57.1C106.4 56.6 106 56.6 105.6 57.2C105.3 57.6 105.1 58.1 104.8 58.5C104.5 59 104.2 59.4 103.9 59.9C103.5 60.7 103.2 61.6 102.8 62.4C102.8 62.5 102.8 62.6 102.7 62.7C102.5 63.1 102.1 63.2 101.7 63C101.2 62.7 101 62.2 100.9 61.7C100.8 61.5 101.1 61.1 101.2 60.8C101.7 59.9 102.1 59.1 102.6 58.3C103.2 57.3 103.9 56.4 104.5 55.5C104.7 55.2 104.8 54.9 104.6 54.5C104.4 54.1 104.3 53.6 104.2 53.2C104.1 52.8 103.9 52.5 103.8 52.1C103.7 51.8 103.4 51.7 103.1 52C102.5 52.5 102 53.1 101.7 53.9C101.7 54 101.6 54.1 101.5 54.2C100.8 55.1 100 55.9 99.3003 56.8C98.8003 57.3 98.3003 57.8 97.8003 58.3C97.3003 58.8 96.9003 59.2 96.4003 59.7C96.2003 59.9 96.0003 60 95.8003 60.1C95.6003 60.3 95.4003 60.5 95.1003 60.8C94.9003 60.8 94.7003 61 94.4003 61.2C93.8003 61.6 93.1003 61.8 92.5003 62.1H92.4003C91.7003 62.7 90.9003 62.3 90.2003 62.4C90.0003 62.4 89.7003 62.3 89.5003 62.2C88.9003 62 88.4003 61.7 88.0003 61.2C87.9003 61.1 87.8003 61 87.7003 60.9C87.5003 60.8 87.3003 60.6 87.3003 60.3C87.3003 60.2 87.2003 60.1 87.2003 60C86.6003 58.8 86.6003 57.6 86.8003 56.4C87.0003 55.2 87.6003 53.8 88.1003 52.9C88.6003 51.8 89.3003 50.8 90.0003 49.8C90.7003 49 91.6003 48.3 92.3003 47.5C92.9003 46.9 93.7003 46.5 94.5003 46.1C94.7003 46 94.9003 46 95.1003 45.9C95.2003 45.9 95.3003 45.9 95.4003 45.9C95.9003 45.6 96.4003 45.9 96.8003 46.1C97.2003 46.3 97.3003 46.4 97.6003 46.8C97.8003 47.2 98.2003 47.6 98.1003 48.2C98.0003 48.6 98.0003 49.1 97.6003 49.4C97.5003 49.5 97.5003 49.6 97.5003 49.7C97.5003 50.1 97.4003 50.4 97.1003 50.7C96.9003 50.9 96.7003 51.2 96.6003 51.4C96.3003 51.8 95.9003 52.1 95.6003 52.4C95.4003 52.6 95.1003 52.8 94.8003 53C94.2003 53.5 93.5003 53.9 92.8003 54.2C92.3003 54.4 91.7003 54.6 91.1003 54.8C90.7003 55 90.3003 55 89.8003 55C89.7003 55 89.6003 55.1 89.5003 55.1C89.5003 55.9 89.5003 56.8 89.5003 57.6C89.5003 57.9 89.7003 58.2 89.9003 58.4C90.2003 58.7 90.5003 58.9 90.8003 59.1C91.1003 59.3 91.4003 59.6 91.9003 59.3C92.8003 59.6 93.5003 59 94.3003 58.8C94.7003 58.7 95.1003 58.3 95.5003 58C95.7003 57.8 95.9003 57.7 96.1003 57.5C96.8003 56.8 97.6003 56.1 98.3003 55.4C98.4003 55.3 98.5003 55 98.6003 54.9C98.9003 54.7 99.2003 54.6 99.3003 54.4C100.2 53.2 101.1 52 102.1 50.8C102.3 50.6 102.5 50.4 102.6 50.1C103 49.5 103.2 48.8 102.8 48.1C102.7 47.9 102.7 47.7 102.7 47.5C102.7 47 102.7 46.6 102.5 46.1C102.4 45.8 102.6 45.4 102.7 45C102.8 44.8 102.9 44.6 103 44.4C103.2 43.7 103.8 43.5 104.4 43.5C104.6 43.5 104.8 43.6 104.8 43.8C104.8 44.1 104.7 44.4 105.1 44.5C105.1 44.5 105.1 44.7 105.1 44.8C105.1 45.2 105.1 45.6 105.1 46C105.1 46.3 105 46.6 105.3 46.9C105.4 47 105.3 47.4 105.3 47.6C105.3 47.8 105.2 48.1 105.5 48.3C105.5 48.3 105.5 48.3 105.5 48.4C105.4 48.9 105.7 49.3 105.8 49.8C105.8 50.2 106 50.6 106.1 50.9C106.1 51 106.2 51.2 106.2 51.3C106.2 51.6 106.3 51.8 106.5 51.8C106.8 51.9 107.1 51.9 107.3 51.7C107.4 51.6 107.4 51.6 107.5 51.5C108.9 49.6 110.6 47.9 112.2 46.3C112.4 46.1 112.7 45.9 112.9 45.7C113.1 45.6 113.2 45.5 113.4 45.3C113.5 45.2 113.7 45 113.8 44.8C114.1 44.9 114.4 44.8 114.6 45C115 45.2 115.1 45.6 114.8 45.9C114.4 46.4 114 46.8 113.5 47.2C113.4 47.3 113.2 47.4 113 47.6C111.8 48.8 110.7 50 109.5 51.1C108.8 51.7 108.4 52.5 107.7 53.2C107.5 53.4 107.5 54.3 107.7 54.5C108.4 55.3 109.1 56.1 110 56.7C110.2 56.9 110.5 56.9 110.7 56.9C111.2 56.9 111.8 56.9 112.3 56.9C112.6 56.9 112.8 57 113 56.7C113.1 56.6 113.3 56.6 113.4 56.6C113.5 56.4 113.6 56.2 113.7 56.2C114.3 56.3 114.6 55.9 115 55.6C115.8 55 116.5 54.4 117.2 53.7C117.9 53 118.5 52.1 119.2 51.3C119.7 50.7 120.1 50.2 120.6 49.6C120.9 49.2 121.2 48.8 121.5 48.4C121.8 48 122.1 47.6 122.4 47.2C122.7 46.7 123 46.1 123.4 45.5C123.6 45.2 123.9 44.9 124.2 44.8C124.8 44.6 125.4 44.4 126.1 44.5C126.2 44.5 126.2 44.5 126.3 44.6C126.3 44.8 126.2 45 126.2 45.2C125.7 46.1 125.2 47 124.7 47.9C124.7 48 124.5 48 124.5 48.1C124.5 48.7 124.1 49.1 123.8 49.6C123.7 49.8 123.7 50 123.7 50.2C123.6 50.6 123.4 51 123.3 51.4C123 52.1 123.2 52.9 123.2 53.6C123.2 53.8 123.3 54.1 123.3 54.3C123.4 54.6 123.7 54.9 124.1 54.8C124.2 54.8 124.4 54.8 124.5 54.8C125.2 55 125.8 54.5 126.3 54.2C127.1 53.8 127.5 53 128 52.3C128.3 51.9 128.6 51.5 128.8 51.1C128.9 50.8 129 50.5 129.1 50.3C129.2 50.2 129.2 50 129.3 49.9C129.7 49.3 129.9 48.6 130.1 47.9C130.3 47.5 130.6 47.1 130.5 46.6C131 45.7 130.6 44.8 130.7 43.9C130.7 43.7 130.7 43.4 130.7 43.2C130.6 42.6 131 42.1 131.2 41.5C131.3 41.3 131.6 41.3 131.7 41.2C132.8 41 133.1 40.9 133.6 41.1ZM127 61.3C126.5 61.2 126.2 61.2 125.9 61.4C125.3 61.8 124.6 62.3 124 62.7C123.1 63.4 122.3 64 121.4 64.7C120.7 65.3 119.9 65.9 119.2 66.5C118.6 67 118 67.6 117.5 68.2C117 68.8 116.6 69.4 116.2 70C116 70.3 115.8 70.7 116 71.1C116 71.1 116 71.2 116 71.3C115.8 71.9 116.1 72.3 116.7 72.4C117.3 72.5 117.9 72.2 118.4 71.9C119.1 71.4 119.8 70.9 120.4 70.3C121.7 69.1 122.9 67.7 124 66.1C124.8 64.8 125.7 63.6 126.5 62.3C126.7 62 126.8 61.7 127 61.3ZM90.5003 52.8C90.9003 52.9 91.1003 53.1 91.6003 53C92.2003 52.8 92.8003 52.6 93.3003 52.2C94.3003 51.6 95.2003 50.9 95.8003 49.8C96.0003 49.4 96.3003 48.9 96.2003 48.4C96.1003 48.1 96.0003 47.9 95.9003 47.6C95.4003 47.7 94.9003 47.6 94.5003 47.8C93.7003 48.3 92.9003 49 92.3003 49.8C91.6003 50.7 90.9003 51.7 90.5003 52.8Z" fill="white"/>
<path d="M68.6001 67C68.1001 67 67.5001 67 67.0001 67C66.8001 67 66.6001 67.1 66.4001 67.1C65.8001 67.1 65.3001 67 64.7001 67C64.3001 67 63.9001 67.1 63.5001 66.8C63.4001 66.8 63.3001 66.7 63.3001 66.7C62.5001 66.7 61.7001 66.4 61.0001 66.2C59.5001 65.8 58.1001 65.2 56.8001 64.4C56.3001 64.1 55.8001 63.8 55.3001 63.4C54.0001 62.3 52.9001 61 52.0001 59.5C51.9001 59.3 51.9001 59 51.6001 58.9C51.5001 58.9 51.5001 58.7 51.5001 58.6C51.5001 58.4 51.5001 58.2 51.4001 58C50.9001 57 50.9001 55.9 50.8001 54.9C50.7001 54.6 50.6001 54.2 50.6001 53.9C50.6001 53.6 50.8001 53.3 50.8001 53C50.9001 52 51.0001 51 51.3001 50.1C51.5001 49.6 51.9001 49.1 52.2001 48.7C53.1001 47.3 54.3001 46.3 55.8001 45.7C56.2001 45.5 56.6001 45.5 56.9001 45.4C57.2001 45.3 57.6001 45.2 57.9001 45.1C58.4001 44.9 58.9001 44.8 59.4001 45.3C59.5001 45.4 59.7001 45.4 59.8001 45.5C60.7001 45.6 61.5001 45.8 62.1001 46.5C62.7001 47.1 62.7001 47.8 62.0001 48.4C61.6001 48.2 61.1001 48.1 60.7001 47.8C59.7001 47.1 58.5001 47 57.3001 47.1C56.3001 47.2 55.5001 47.7 54.8001 48.3C54.0001 49 53.3001 49.9 52.9001 50.9C52.9001 51 52.9001 51.1 52.8001 51.3C52.6001 51.9 52.5001 52.4 52.8001 53C52.9001 53.3 52.9001 53.8 52.6001 54.1C52.5001 54.2 52.5001 54.4 52.6001 54.5C53.0001 55 52.8001 55.6 52.9001 56.1C53.1001 56.9 53.4001 57.7 53.9001 58.3C54.4001 59 55.0001 59.8 55.7001 60.4C56.4001 61.1 57.2001 61.6 58.0001 62.1C59.1001 62.8 60.3001 63.5 61.6001 63.9C62.0001 64 62.4001 64.1 62.8001 64.3C63.3001 64.6 63.8001 64.4 64.3001 64.7C64.6001 64.9 65.0001 64.8 65.4001 64.9C67.3001 65.1 69.2001 65.1 71.1001 64.9C72.0001 64.8 73.0001 64.6 73.8001 64.2C74.4001 64 74.9001 63.8 75.5001 63.5C76.4001 63.2 77.1001 62.7 77.8001 62.1C78.6001 61.5 79.5001 60.8 80.1001 59.9C80.4001 59.5 80.9001 59.1 81.1001 58.7C82.0001 57.4 82.6001 56 82.5001 54.3C82.5001 53.8 82.5001 53.2 82.4001 52.7C82.3001 52.4 82.2001 52 82.1001 51.7C81.3001 50.1 80.1001 48.7 78.6001 47.7C77.8001 47.1 77.0001 46.5 76.2001 46C75.5001 45.5 74.7001 45 74.0001 44.5C73.3001 44 72.6001 43.5 71.9001 42.9C71.4001 42.5 70.8001 42.1 70.3001 41.7C70.1001 41.6 70.0001 41.4 69.9001 41.3C69.2001 40.6 68.6001 40 68.0001 39.2C67.5001 38.5 67.1001 37.8 66.7001 37C66.5001 36.6 66.3001 36.1 66.2001 35.7C66.1001 35.2 66.0001 34.6 65.9001 34.1C65.9001 33.9 66.0001 33.8 66.0001 33.6C66.2001 32.5 66.5001 31.3 67.1001 30.3C67.4001 29.7 67.7001 29.2 68.2001 28.7C68.5001 28.4 68.7001 28.1 69.0001 27.9C69.3001 27.6 69.6001 27.3 70.1001 27.1C70.4001 27 70.7001 26.7 71.0001 26.5C71.8001 25.9 72.8001 25.6 73.7001 25.3C74.3001 25.1 74.9001 25 75.6001 24.8C77.5001 24.4 78.7001 24.1 80.4001 24.2C80.6001 24.2 80.9001 24.2 81.1001 24.3C81.4001 24.5 81.8001 24.4 82.1001 24.2C82.4001 24.6 82.8001 24.5 83.3001 24.6C84.1001 24.8 84.8001 25 85.5001 25.3C86.1001 25.5 86.7001 25.8 87.3001 26.2C88.3001 26.9 89.2001 27.6 89.5001 28.9C89.8001 30.1 90.0001 31.2 89.3001 32.3C89.0001 32.7 88.7001 33.1 88.2001 33.3C87.4001 33.8 86.5001 34.1 85.5001 34C84.6001 33.9 83.7001 33.7 83.0001 32.9C83.1001 32.8 83.2001 32.6 83.2001 32.4C83.5001 31.8 83.8001 31.7 84.4001 31.9C84.6001 32 84.8001 32 85.0001 32.1C85.2001 32.1 85.4001 32.1 85.6001 32.1C85.9001 32.1 86.2001 32 86.4001 32.1C86.6001 32.2 86.8001 32.2 87.0001 32.1C87.4001 31.8 87.8001 31.5 87.7001 30.9C87.6001 30.3 87.5001 29.7 87.0001 29.3C86.7001 29 86.4001 28.8 86.2001 28.5C85.9001 28.2 85.6001 28 85.1001 28C84.8001 28 84.6001 27.8 84.3001 27.7C83.6001 27.4 82.9001 26.8 82.1001 26.7C82.0001 26.7 81.9001 26.6 81.8001 26.6C81.2001 26.9 80.6001 26.5 80.0001 26.5C79.3001 26.5 78.7001 26.5 78.0001 26.5C77.6001 26.5 77.2001 26.5 76.9001 26.4C76.7001 26.3 76.4001 26.4 76.1001 26.4C75.5001 26.5 74.9001 26.7 74.3001 26.8C74.2001 26.8 74.2001 26.8 74.1001 26.9C73.8001 27.4 73.2001 27.4 72.8001 27.7C72.6001 27.9 72.2001 27.9 71.9001 28C71.9001 28 71.8001 28 71.8001 28.1C70.7001 28.8 69.7001 29.5 69.1001 30.6C69.0001 30.8 69.1001 31.2 68.7001 31.3C68.7001 31.3 68.6001 31.4 68.6001 31.5C68.6001 32.4 68.6001 33.3 68.6001 34.2C68.6001 34.5 68.7001 34.6 68.9001 34.8C69.0001 34.9 69.1001 35.1 69.1001 35.3C69.1001 35.9 69.3001 36.4 69.8001 36.8C70.0001 37 70.3001 37.1 70.3001 37.5C70.3001 37.6 70.4001 37.7 70.5001 37.7C71.0001 38.1 71.2001 38.8 72.0001 38.8C72.0001 38.8 72.1001 38.8 72.1001 38.9C72.4001 39.5 73.0001 39.7 73.4001 40.1C73.6001 40.3 73.8001 40.6 74.1001 40.5H74.2001C74.2001 40.9 74.7001 40.9 74.9001 41.1C75.4001 41.6 75.9001 41.9 76.5001 42.2C76.9001 42.4 77.2001 42.7 77.5001 42.9C77.9001 43.1 78.2001 43.4 78.6001 43.6C78.7001 43.6 78.7001 43.7 78.8001 43.7C79.3001 44.1 79.8001 44.6 80.3001 45C81.1001 45.5 81.8001 46.2 82.4001 46.9C83.2001 47.8 83.9001 48.7 84.2001 49.8C84.3001 50.2 84.6001 50.5 84.5001 50.9V51C85.0001 51.2 84.8001 51.7 84.8001 52C84.9001 52.3 84.9001 52.6 84.9001 52.9C84.9001 53 84.9001 53.2 84.9001 53.3C84.8001 54 84.7001 54.7 84.6001 55.4C84.4001 56.4 83.9001 57.3 83.5001 58.2C83.3001 58.6 83.1001 59 82.8001 59.4C82.7001 59.5 82.6001 59.6 82.5001 59.7C82.3001 59.9 82.1001 60.2 81.9001 60.5C81.8001 60.7 81.6001 60.9 81.5001 61C80.7001 61.8 79.8001 62.5 78.9001 63.2C78.7001 63.3 78.6001 63.5 78.5001 63.6C78.4001 63.7 78.4001 63.8 78.3001 63.8C76.9001 64.4 75.6001 65.3 74.1001 65.7C73.5001 65.9 72.9001 66.1 72.2001 66.2C71.7001 66.3 71.2001 66.4 70.7001 66.6C70.2001 66.7 69.7001 66.8 69.2001 66.9C69.1001 66.9 69.0001 67 68.9001 67C68.7001 67 68.7001 67 68.6001 67Z" fill="white"/>
<path d="M100.5 19.7001C101.8 18.9001 103.3 18.4001 104.8 18.1001C105.9 17.9001 107 17.7001 108.2 17.7001C108.9 17.7001 109.5 17.9001 110.2 17.9001C111.2 17.9001 112 18.3001 112.8 18.7001C114.3 19.6001 115.5 20.8001 115.6 22.7001C115.7 23.6001 115.4 24.4001 115 25.2001C114.6 26.1001 114 26.9001 113.4 27.6001C111.9 29.4001 110 30.8001 107.9 31.9001C106.4 32.7001 104.9 33.3001 103.2 33.7001C102.2 34.0001 101.1 34.2001 100.1 34.4001C99.7002 34.5001 99.2002 34.4001 98.7002 34.5001C99.3002 32.3001 100.2 30.3001 100.9 28.2001C101.6 26.1001 102.4 24.1001 103.2 21.9001C105.2 23.6001 106.9 25.5001 108.9 27.2001C110.2 26.3001 111.3 25.3001 112 23.9001C112.2 23.4001 112.4 22.9001 112.5 22.3001C112.7 21.1001 111.9 20.0001 110.7 19.5001C108.9 18.7001 107.1 18.6001 105.2 18.7001C103.8 18.8001 102.4 19.1001 101 19.5001C100.9 19.5001 100.7 19.6001 100.6 19.7001C100.6 19.8001 100.5 19.7001 100.5 19.7001ZM103.9 26.5001C103.4 27.9001 103 29.2001 102.6 30.6001C104 30.0001 105.3 29.5001 106.6 29.0001C106.5 28.9001 106.5 28.8001 106.5 28.8001C105.8 28.1001 105.1 27.4001 104.5 26.8001C104.3 26.6001 104.1 26.6001 103.9 26.5001Z" fill="white"/>
<path d="M114 30.8C113.2 32.6 112.2 34.3 110.9 35.8C109.7 37.2 108.3 38.3 106.7 39.2C105.7 39.7 104.7 40.1 103.6 40.3C102.8 40.4 102 40.6 101.2 40.5C100.5 40.5 99.8003 40.2 99.1003 40.1C97.9003 39.9 96.8003 39.2 95.9003 38.5C95.0003 37.8 94.4003 36.9 94.0003 35.9C93.6003 34.9 93.6003 33.9 93.5003 32.9C93.4003 30.7 94.3003 28.8 95.4003 27.1C96.0003 26.1 96.7003 25.2 97.6003 24.4C98.2003 23.9 98.7003 23.3 99.5003 23L99.6003 23.1C98.2003 24.4 96.9003 25.9 96.1003 27.7C95.6003 28.8 95.3003 29.9 95.3003 31.1C95.3003 31.8 95.3003 32.4 95.3003 33.1C95.4003 33.9 95.7003 34.7 96.2003 35.3C97.0003 36.4 98.0003 37 99.3003 37.4C100.1 37.7 101 37.7 101.8 37.6C103.9 37.5 105.8 36.9 107.6 36C108.7 35.5 109.7 34.7 110.6 34C111.8 33 112.8 31.8 113.8 30.6C113.9 30.7 113.9 30.7 114 30.8Z" fill="white"/>
<path d="M132.5 28.4C133.6 28.4 134.8 28.4 135.9 28.4C136.2 28.4 136.4 28.4 136.7 28.4L136.8 28.5C136.8 28.8 136.8 29.2 136.7 29.5C136.7 29.7 136.4 29.7001 136.2 29.7001C135.2 29.7001 134.1 29.7001 133.1 29.7001C132.8 29.7001 132.5 29.7001 132.2 29.7001C132.1 30.1001 132 30.6 131.9 31C131.8 31.6 131.6 32.2001 131.6 32.9001C131.5 33.6001 131.4 34.3 131.4 35.1C133.6 35.1 135.8 35.1 137.9 35.1C138.1 35.6 137.8 36 137.9 36.5C134.7 36.5 131.6 36.5 128.4 36.5C129.2 31.9 130 27.4 130.7 22.8C133.8 22.8 136.9 22.8 140.1 22.8C140 23.2 140 23.6 139.9 24.1C137.6 24.1 135.4 24.1 133.1 24.1C132.9 25.2 132.7 26.1 132.5 27.1C132.4 27.5 132.4 27.8001 132.4 28.2001C132.4 28.3001 132.4 28.4 132.5 28.4Z" fill="white"/>
<path d="M122.9 22.6001C123.2 22.6001 123.4 22.6001 123.6 22.6001C124.9 27.3001 126.2 31.9001 127.5 36.6001C126.5 36.6001 125.7 36.6001 124.8 36.6001C124.4 35.2001 124 33.7001 123.6 32.2001C123.5 32.2001 123.3 32.2001 123.2 32.2001C121.8 32.2001 120.3 32.2001 118.9 32.2001C118.5 32.2001 118.3 32.4001 118.1 32.7001C117.3 33.9001 116.6 35.1001 115.8 36.4001C115.7 36.6001 115.5 36.8001 115.2 36.7001C114.9 36.7001 114.5 36.7001 114 36.7001C114.2 36.3001 114.4 35.9001 114.6 35.6001C115.8 33.7001 117 31.8001 118.2 29.9001C119.6 27.7001 121 25.4001 122.4 23.2001C122.6 22.9001 122.7 22.7001 122.9 22.6001ZM123.1 30.7001C122.9 30.0001 122.7 29.4001 122.5 28.7001C122.3 28.1001 122.3 27.4001 121.9 26.7001C121.6 27.2001 121.4 27.5001 121.2 27.9001C120.6 28.8001 120 29.8001 119.4 30.7001L119.3 30.8001H119.4C120.6 30.8001 121.8 30.8001 123 30.8001C123 30.7001 123 30.7001 123.1 30.7001Z" fill="white"/>
<path d="M145.3 40.1001C145.4 40.0001 145.4 39.9001 145.4 39.9001C145.6 39.8001 145.8 39.7001 146 39.6001C146.2 39.3001 146.5 39.1001 146.4 38.7001C146.3 38.2001 146.4 37.8001 146.4 37.3001C146.7 37.2001 146.9 37.3001 147 37.5001C147.2 37.7001 147.5 37.9001 147.7 38.1001C148 38.4001 148.4 38.4001 148.8 38.2001C149.1 38.0001 149.4 38.0001 149.9 37.9001C149.4 38.6001 149.6 39.2001 149.5 39.9001C149.5 40.6001 150.1 40.9001 150.3 41.6001C149.9 41.6001 149.6 41.7001 149.2 41.5001C148.9 41.4001 148.6 41.4001 148.3 41.4001C148.2 41.4001 148.1 41.5001 148.1 41.6001C148.1 42.0001 147.7 42.2001 147.5 42.5001C147.4 42.5001 147.2 42.5001 147.1 42.5001C147 42.2001 146.9 42.0001 146.9 41.7001C146.9 41.2001 146.6 41.0001 146.2 40.9001C145.9 40.8001 145.6 40.7001 145.3 40.5001C145.3 40.3001 145.3 40.2001 145.3 40.1001Z" fill="white"/>
<path d="M114 30.8C113.9 30.7 113.9 30.7 113.8 30.6C113.9 30.4 114.1 30.2 114.2 30C114.2 30 114.3 30 114.3 30.1C114.2 30.3 114.1 30.6 114 30.8Z" fill="white"/>
<path d="M147.2 42.4C147.3 42.4 147.5 42.4 147.6 42.4C147.5 42.5 147.5 42.7 147.4 42.8C147.1 42.7 147.2 42.6 147.2 42.4Z" fill="white"/>
<path d="M100.5 19.7001C100.6 19.8001 100.6 19.8001 100.7 19.9001C100.5 20.0001 100.3 20.2001 99.8999 20.1001C100.1 19.9001 100.3 19.8001 100.5 19.7001Z" fill="white"/>
<path d="M99.6 23.1001L99.5 23.0001C99.7 22.9001 99.8 22.8001 100 22.7001L100.1 22.8001C99.9 22.9001 99.8 23.0001 99.6 23.1001Z" fill="white"/>
<path d="M145.3 40.1001C145.3 40.2001 145.3 40.3001 145.3 40.4001C145.2 40.4001 145.1 40.4001 145 40.4001V40.3001C145.1 40.2001 145.2 40.2001 145.3 40.1001Z" fill="white"/>
<path d="M42 69.0001C42 68.9001 42.1 68.8001 42.1 68.7001C42.3 68.9001 42.1 68.9001 42 69.0001Z" fill="white"/>
<path d="M145.4 39.9L145.3 40C145.4 40 145.4 39.9 145.4 39.9Z" fill="white"/>
<path d="M136.8 28.6L136.7 28.5C136.7 28.5 136.7 28.5 136.8 28.6Z" fill="white"/>
<path d="M132.5 28.4L132.4 28.3C132.4 28.3 132.4 28.4 132.5 28.4Z" fill="white"/>
<path d="M68.6001 67C68.7001 67 68.7001 67 68.8001 67C68.7001 67.1 68.7001 67.1 68.6001 67C68.6001 67.1 68.6001 67.1 68.6001 67Z" fill="white"/>
<path d="M18.5 33.1C18.5 33 18.5 32.9 18.5 32.8C18.7 32.9 18.7 33 18.5 33.1Z" fill="white"/>
<path d="M123 30.8001L123.1 30.7001C123 30.7001 123 30.7001 123 30.8001Z" fill="white"/>
<path d="M119.4 30.6001V30.7001C119.4 30.7001 119.3 30.7001 119.4 30.6001C119.3 30.7001 119.3 30.7001 119.4 30.6001Z" fill="white"/>
</svg>
