<svg width="160" height="80" viewBox="0 0 160 80" fill="none" xmlns="http://www.w3.org/2000/svg">
<path d="M57.4999 69.6H52.9999C52.9999 69.7 52.9999 69.8 52.8999 69.8C52.8999 69.8 52.8999 69.8 52.8999 69.9V71.1C52.8999 71.1 52.9999 71.2 53.0999 71.3C53.0999 71.3 53.1999 71.3 53.2999 71.3H54.4999L54.7999 77.1V77.3C54.7999 77.3 54.7999 77.3 54.8999 77.3H56.2999C56.2999 77.3 56.3999 77.2 56.4999 77.1C56.4999 77.1 56.4999 77 56.4999 76.9L56.2999 71.2H57.4999C57.4999 71.2 57.4999 71.2 57.5999 71.2C57.5999 71.2 57.5999 71.2 57.5999 71.1C57.5999 71 57.5999 71.1 57.5999 71V69.7L57.4999 69.6C57.3999 69.5 57.2999 69.5 57.1999 69.5L57.4999 69.6ZM62.7999 70H61.3999C61.3999 70 61.2999 70 61.1999 70C61.1999 70 61.1999 70.1 61.1999 70.2V73.2L60.5999 73.3L60.3999 69.9C60.3999 69.9 60.3999 69.8 60.3999 69.7C60.3999 69.7 60.2999 69.7 60.1999 69.7H58.8999C58.8999 69.7 58.8999 69.7 58.7999 69.7C58.7999 69.7 58.7999 69.7 58.7999 69.8L59.0999 77.4C59.0999 77.4 59.0999 77.5 59.0999 77.6C59.0999 77.7 59.1999 77.6 59.2999 77.6H60.5999C60.5999 77.6 60.5999 77.6 60.6999 77.6C60.6999 77.6 60.6999 77.6 60.6999 77.5V75C60.5999 75 61.0999 75 61.0999 75V77.3C61.0999 77.3 61.0999 77.3 61.1999 77.4C61.1999 77.4 61.1999 77.4 61.1999 77.5C61.1999 77.5 61.1999 77.5 61.2999 77.5H62.6999C62.6999 77.5 62.7999 77.5 62.8999 77.5C62.8999 77.5 62.8999 77.4 62.8999 77.3V70.2C62.8999 70.2 62.8999 70.2 62.7999 70C62.8999 70.1 62.8999 70.1 62.7999 70ZM67.7999 69.4H66.5999C66.5999 69.5 66.4999 69.5 66.3999 69.6C66.3999 69.6 66.3999 69.7 66.3999 69.8V75.2C66.3999 75.6 66.3999 76.2 65.9999 76.2C65.6999 76.2 65.5999 75.8 65.5999 75.2C65.5999 74.6 65.5999 70.1 65.5999 70.1C65.5999 70.1 65.5999 70 65.5999 69.9C65.5999 69.9 65.4999 69.9 65.3999 69.9L63.9999 69.7C63.9999 69.7 63.9999 69.7 63.8999 69.7C63.8999 69.7 63.8999 69.7 63.7999 69.7C63.7999 69.7 63.7999 69.7 63.7999 69.8C63.7999 69.8 63.7999 75.4 63.7999 75.6C63.7999 75.9 63.7999 76.1 63.9999 76.4C64.0999 76.6 64.2999 76.9 64.4999 77.1C64.6999 77.3 64.8999 77.4 65.1999 77.5C65.4999 77.5 65.6999 77.6 65.9999 77.6C67.7999 77.6 68.0999 76.5 68.1999 75.3C68.1999 74.8 68.2999 70.1 68.2999 69.6C68.2999 69.6 68.2999 69.6 68.2999 69.5C68.2999 69.5 68.2999 69.5 68.1999 69.5C68.1999 69.5 68.1999 69.5 68.0999 69.5L67.7999 69.4ZM73.2999 69.7H71.9999C71.9999 69.7 71.9999 69.7 71.8999 69.7C71.8999 69.7 71.8999 69.7 71.8999 69.8L72.0999 73.4L70.7999 69.7C70.7999 69.7 70.7999 69.6 70.6999 69.6C70.6999 69.6 70.5999 69.6 70.4999 69.6H69.1999C69.1999 69.8 69.0999 69.8 68.9999 69.8C68.9999 69.8 68.9999 69.9 68.9999 70L69.1999 77C69.1999 77 69.1999 77.1 69.1999 77.2C69.1999 77.2 69.2999 77.2 69.3999 77.2H70.6999C70.6999 77.2 70.6999 77.2 70.7999 77.2C70.7999 77.2 70.7999 77.2 70.8999 77.2C70.8999 77.2 70.8999 77.2 70.8999 77.1C70.8999 77.1 70.8999 77.1 70.8999 77L70.6999 73.9L71.7999 77.1C71.7999 77.1 71.7999 77.1 71.7999 77.2C71.7999 77.2 71.7999 77.2 71.9999 77.2H73.3999C73.3999 77.2 73.3999 77.2 73.4999 77.2C73.4999 77.2 73.4999 77.2 73.4999 77.1C73.4999 77.1 73.4999 77.1 73.4999 77V69.6C73.4999 69.6 73.4999 69.6 73.3999 69.5C73.3999 69.5 73.3999 69.5 73.2999 69.5C73.2999 69.5 73.2999 69.5 73.1999 69.5L73.2999 69.7ZM74.9999 69.5H74.6999C74.6999 69.5 74.5999 69.5 74.4999 69.5C74.4999 69.5 74.4999 69.6 74.4999 69.7L74.2999 77C74.2999 77 74.2999 77.1 74.2999 77.2C74.2999 77.2 74.3999 77.2 74.4999 77.2C74.4999 77.2 74.6999 77.2 74.8999 77.2C75.7999 77.2 77.9999 77 78.4999 75.5C78.8999 74.2 78.8999 72.5 78.7999 71.7C78.5999 70.1 77.3999 69.3 75.0999 69.3L74.9999 69.5ZM76.9999 74.4C76.7999 75.6 76.4999 75.7 75.9999 75.9L76.1999 71.3C76.2999 71.3 76.3999 71.3 76.4999 71.4C76.4999 71.4 76.6999 71.5 76.6999 71.6C76.9999 72.1 76.9999 73.2 76.8999 74.4H76.9999ZM82.9999 76.2H81.2999C81.2999 76.3 81.2999 74.7 81.2999 74.7H82.3999C82.3999 74.7 82.4999 74.7 82.5999 74.6C82.5999 74.6 82.5999 74.5 82.5999 74.4V73.4C82.6999 73.4 82.6999 73.4 82.5999 73.3C82.5999 73.3 82.5999 73.3 82.5999 73.2C82.5999 73.2 82.5999 73.2 82.4999 73.2C82.4999 73.2 82.4999 73.2 82.3999 73.2H81.1999V71.5H82.9999C82.9999 71.5 82.9999 71.5 83.0999 71.5C83.0999 71.5 83.0999 71.5 83.0999 71.4V70.4C82.9999 70.4 82.9999 70.3 82.8999 70.2C82.8999 70.2 82.7999 70.2 82.6999 70.2H79.4999C79.4999 70.2 79.3999 70.3 79.2999 70.4C79.2999 70.4 79.2999 70.5 79.2999 70.6V77.8C79.3999 77.8 79.3999 77.9 79.4999 78C79.4999 78 79.5999 78 79.6999 78H82.9999C82.9999 78 83.0999 78 83.1999 78C83.1999 78 83.1999 77.9 83.1999 77.8V76.9C83.1999 76.9 83.1999 76.9 83.1999 76.8C83.1999 76.8 83.1999 76.8 83.0999 76.8C83.0999 76.8 83.0999 76.8 82.9999 76.8V76.2ZM88.2999 71.9C88.2999 70.9 87.8999 69.5 85.6999 69.5C85.0999 69.5 84.5999 69.5 83.9999 69.7C83.9999 69.7 83.8999 69.7 83.7999 69.8C83.7999 69.8 83.7999 69.9 83.7999 70V77.1C83.8999 77.1 83.8999 77.2 83.9999 77.3C83.9999 77.3 84.0999 77.3 84.1999 77.3H85.1999C85.1999 77.3 85.1999 77.3 85.2999 77.3C85.2999 77.3 85.2999 77.3 85.3999 77.3C85.3999 77.3 85.3999 77.3 85.3999 77.2V74.9H85.8999L86.4999 77.3C86.4999 77.3 86.4999 77.4 86.4999 77.5C86.4999 77.6 86.5999 77.5 86.6999 77.5H87.6999C87.6999 77.5 87.6999 77.5 87.7999 77.4C87.7999 77.4 87.7999 77.4 87.7999 77.3C87.7999 77.3 87.7999 77.3 87.7999 77.2L87.0999 74.5C87.5999 74.1 88.0999 73.4 87.9999 72L88.2999 71.9ZM86.3999 72.9C86.0999 73.1 85.7999 73.3 85.3999 73.3V71.2C85.3999 71.2 85.5999 71.2 85.6999 71.2C86.0999 71.2 86.5999 71.4 86.5999 72.2C86.5999 72.3 86.5999 72.5 86.5999 72.6C86.5999 72.7 86.5999 72.8 86.3999 72.9ZM92.1999 74C93.1999 72.9 93.6999 71.4 93.5999 69.9C93.5999 69.9 93.5999 69.9 93.5999 69.8C93.5999 69.8 93.5999 69.8 93.4999 69.8H92.2999C92.2999 69.8 92.1999 69.9 92.0999 70C92.0999 70 92.0999 70.1 92.0999 70.2C92.0999 70.8 91.6999 72.2 91.0999 73V70.2C91.0999 70.2 91.0999 70.2 91.0999 70.1C91.0999 70.1 91.0999 70.1 90.9999 70.1H89.3999C89.3999 70.1 89.3999 70.1 89.2999 70.1C89.2999 70.1 89.2999 70.1 89.2999 70.2L89.4999 77.5C89.4999 77.5 89.4999 77.5 89.4999 77.6C89.4999 77.6 89.4999 77.6 89.5999 77.6C89.6999 77.6 89.5999 77.6 89.6999 77.6L90.8999 77.4C90.8999 77.4 90.9999 77.4 91.0999 77.4C91.0999 77.4 91.0999 77.3 91.0999 77.2V75C91.3999 75.1 92.0999 76.2 92.1999 77.2C92.1999 77.2 92.1999 77.3 92.1999 77.4C92.1999 77.4 92.2999 77.4 92.3999 77.4H93.6999C93.6999 77.4 93.7999 77.4 93.8999 77.4C93.8999 77.4 93.8999 77.3 93.8999 77.2C93.8999 76.9 93.3999 74.7 92.3999 73.9L92.1999 74ZM95.7999 69.5L94.3999 69.7C94.3999 69.7 94.2999 69.7 94.1999 69.7C94.1999 69.7 94.1999 69.8 94.1999 69.9V77.1C94.1999 77.1 94.1999 77.1 94.1999 77.2C94.1999 77.2 94.1999 77.2 94.2999 77.2H95.7999C95.7999 77.1 95.8999 77 95.9999 77C95.9999 77 95.9999 76.9 95.9999 76.8V69.5C95.8999 69.5 95.8999 69.5 95.8999 69.4C95.8999 69.4 95.8999 69.4 95.7999 69.4C95.7999 69.4 95.7999 69.4 95.6999 69.4L95.7999 69.5ZM98.6999 69.7C98.2999 69.7 96.8999 70 96.7999 72C96.7999 72.3 96.7999 72.5 96.7999 72.7C96.7999 74.1 96.6999 75.1 96.7999 75.9C96.8999 76.4 97.2999 77.6 98.9999 77.6C100.7 77.6 99.1999 77.6 99.2999 77.6C99.9999 77.6 100.5 77.3 100.9 76.9C101.4 76.3 101.3 75.6 101.3 75.2C101.3 75.1 101.3 75 101.2 74.9C101.2 74.9 101.1 74.9 101 74.9H99.8999C99.8999 74.9 99.8999 74.9 99.7999 74.9C99.7999 74.9 99.7999 74.9 99.7999 75C99.7999 75 99.7999 75 99.7999 75.1C99.7999 75.4 99.7999 75.7 99.6999 75.9C99.6999 75.9 99.6999 75.9 99.4999 76C99.4999 76 99.3999 76 99.2999 76C99.2999 76 99.1999 76 99.0999 76C99.0999 76 98.9999 76 98.8999 75.9C98.6999 75.7 98.5999 75.3 98.5999 74.3C98.5999 74.1 98.5999 73.8 98.5999 73.5C98.5999 72.8 98.5999 71.9 98.6999 71.4C98.6999 71 98.7999 70.8 99.1999 70.8C99.1999 70.8 99.3999 70.8 99.4999 70.8C99.4999 70.8 99.6999 70.8 99.6999 70.9C99.6999 71 99.7999 71.2 99.6999 71.3C99.6999 71.3 99.6999 71.3 99.6999 71.4C99.6999 71.4 99.6999 71.4 99.6999 71.5C99.6999 71.5 99.6999 71.5 99.7999 71.5H101.1C101.1 71.5 101.2 71.5 101.3 71.5C101.3 71.5 101.3 71.4 101.3 71.3C101.3 70.8 101.1 70.2 100.7 69.9C100.2 69.4 99.3999 69.1 98.3999 69.2L98.6999 69.7ZM107.3 77C107.3 77 106.7 74.7 105.6 73.7C106.2 73.2 107.3 72.1 106.9 69.8C106.9 69.8 106.9 69.7 106.8 69.6C106.8 69.6 106.7 69.6 106.6 69.6L105.1 69.8C105.1 69.8 105.1 69.8 105 69.8C105 69.8 105 69.9 105 70C105 70 105.3 71.7 104.1 72.8V69.9C104.1 69.9 104.1 69.9 104.1 69.8C104.1 69.8 104.1 69.8 104 69.8C104 69.8 104 69.8 103.9 69.8L102.4 70C102.4 70 102.3 70 102.2 70C102.2 70 102.2 70.1 102.2 70.2L102.4 77.5C102.4 77.5 102.4 77.5 102.4 77.6C102.4 77.6 102.5 77.6 102.6 77.6H103.9C103.9 77.5 104 77.4 104.1 77.4C104.1 77.4 104.1 77.3 104.1 77.2V74.9C104.6 75.3 105.3 76.4 105.4 77.3C105.4 77.3 105.4 77.3 105.4 77.4C105.4 77.4 105.4 77.4 105.5 77.4C105.5 77.4 105.5 77.4 105.6 77.4L107.1 77.2C107.1 77.2 107.1 77.2 107.2 77.2C107.2 77.2 107.2 77.2 107.3 77C107.2 77.1 107.2 77.1 107.3 77Z" fill="white"/>
<path d="M103.5 42.6L105.3 30.3L97.8999 14.8L92.8999 16.5L86.3999 9.50001L74.7999 3.20001L72.2999 12.5L70.4999 7.60001L61.5999 16.3L56.5999 25L56.3999 34L52.8999 32.3L55.2999 46.7L60.6999 56L73.4999 60.4L83.9999 60.8L102 54.2L107.2 41.4L103.5 42.6ZM95.6999 35.8L85.4999 36.1L85.0999 47.6L84.4999 54.4H75.5999V47.8L74.8999 36.4L64.1999 36.9L63.7999 25.9H79.4999L95.7999 25.3L96.0999 26.8L95.5999 35.9L95.6999 35.8Z" fill="white"/>
</svg>
